<?xml version="1.0" encoding="UTF-8" standalone="no"?>
<!-- Created with Inkscape (http://www.inkscape.org/) -->

<svg
   xmlns:dc="http://purl.org/dc/elements/1.1/"
   xmlns:cc="http://creativecommons.org/ns#"
   xmlns:rdf="http://www.w3.org/1999/02/22-rdf-syntax-ns#"
   xmlns:svg="http://www.w3.org/2000/svg"
   xmlns="http://www.w3.org/2000/svg"
   xmlns:sodipodi="http://sodipodi.sourceforge.net/DTD/sodipodi-0.dtd"
   xmlns:inkscape="http://www.inkscape.org/namespaces/inkscape"
   width="1920"
   height="1080"
   id="svg3360"
   version="1.1"
   inkscape:version="0.91 r13725"
   viewBox="0 0 1920 1080"
   sodipodi:docname="drawing.svg">
  <defs
     id="defs3362">
    <inkscape:perspective
       sodipodi:type="inkscape:persp3d"
       inkscape:vp_x="0 : 540 : 1"
       inkscape:vp_y="0 : 1000 : 0"
       inkscape:vp_z="1920 : 540 : 1"
       inkscape:persp3d-origin="960 : 360 : 1"
       id="perspective3368" />
  </defs>
  <sodipodi:namedview
     id="base"
     pagecolor="#ffffff"
     bordercolor="#666666"
     borderopacity="1.0"
     inkscape:pageopacity="0.0"
     inkscape:pageshadow="2"
     inkscape:zoom="0.42426407"
     inkscape:cx="683.64208"
     inkscape:cy="540"
     inkscape:document-units="px"
     inkscape:current-layer="layer2"
     showgrid="false"
     inkscape:window-width="1680"
     inkscape:window-height="1001"
     inkscape:window-x="0"
     inkscape:window-y="0"
     inkscape:window-maximized="1" />
  <metadata
     id="metadata3365">
    <rdf:RDF>
      <cc:Work
         rdf:about="">
        <dc:format>image/svg+xml</dc:format>
        <dc:type
           rdf:resource="http://purl.org/dc/dcmitype/StillImage" />
        <dc:title></dc:title>
      </cc:Work>
    </rdf:RDF>
  </metadata>
  <g
     id="layer1"
     inkscape:label="Layer 1"
     inkscape:groupmode="layer"
     sodipodi:insensitive="true">
    <rect
       style="fill:#ffffff;fill-opacity:1"
       id="rect3384"
       width="1928.0444"
       height="1077.1593"
       x="0"
       y="2.8406696" />
  </g>
  <g
     inkscape:groupmode="layer"
     id="layer2"
     inkscape:label="Layer 2"
     style="display:inline">
    <path
       style="fill:#00ff00;fill-opacity:1"
       id="path3420"
       d="m -14.9105,753.23477 c 26.648111,-24.30729 51.502699,-50.52573 76.591368,-76.42243 17.20947,-17.08782 34.542328,-34.045 51.571412,-51.31403 6.66952,-7.22422 14.56884,-13.07073 21.97752,-19.46852 3.35836,-3.35364 7.35776,-5.87881 11.2851,-8.48664 11.04798,-7.74148 23.83984,-13.8236 35.01774,-20.53856 9.29386,-5.58315 -18.77228,10.85348 -28.19456,16.21707 -0.98155,0.55874 1.23005,-0.83793 3.49648,-2.27676 5.55355,-3.57659 10.36707,-8.1257 15.63863,-12.06582 0,0 32.40746,-12.63558 32.40746,-12.63558 l 0,0 c -5.70984,3.18457 -10.11266,8.23071 -15.47777,11.96118 -10.99958,7.66945 -25.07847,14.51084 -35.08947,20.76554 -9.17497,5.73236 18.6864,-10.908 28.06173,-16.30646 1.11073,-0.63957 -4.08414,2.69519 -3.29142,1.98783 -3.77264,2.97573 -8.21151,4.9733 -11.74104,8.26936 -7.29814,6.8665 -15.85265,12.30109 -22.78537,19.60067 -17.62942,17.57339 -35.59514,34.79219 -53.504665,52.07809 -24.64028,25.19655 -48.898048,50.79414 -74.089618,75.43262 0,0 -31.873527,13.20244 -31.873527,13.20244 z"
       inkscape:connector-curvature="0" />
    <path
       style="fill:#00ff00;fill-opacity:1"
       id="path3422"
       d="m 14.407942,785.25152 c 18.596901,-40.91326 43.898746,-78.3629 69.249391,-115.32011 16.451287,-22.20042 33.480397,-44.11653 52.222887,-64.4526 12.93615,-11.89043 28.46279,-25.95133 46.57268,-26.61826 14.58912,-0.39923 3.12999,14.07839 -0.4607,19.63832 -22.26604,29.96631 -44.22974,60.14996 -65.53896,90.80612 -8.0275,11.48344 -15.68968,23.21979 -22.933428,35.21287 -1.196103,1.98033 -6.946596,11.4733 -7.994899,14.42886 -0.392905,1.10775 -0.176813,2.34407 -0.26522,3.51611 18.713547,-0.17439 36.775937,-7.74713 53.822027,-14.72134 4.40529,-2.28573 17.07103,-9.98272 13.21587,-6.85719 -4.38959,3.5588 -9.40415,9.69507 -14.84846,8.18079 -4.93561,-1.3728 8.43814,-5.81314 12.59482,-8.80762 10.1932,-7.34321 19.89672,-15.22804 29.60252,-23.1913 5.54958,-5.05362 12.42464,-9.49641 16.47379,-16.02662 1.65968,-2.67664 1.90857,-4.32357 2.83945,-7.40418 2.11651,-10.36176 3.35838,-20.87351 4.21042,-31.4064 0.25037,-8.67228 1.25044,-17.47288 0.32156,-26.1344 -1.67064,-1.22208 -0.25084,-0.55995 -3.25243,1.11444 -4.69801,2.62071 -18.91621,10.25708 -14.18168,7.70292 20.02795,-10.80458 25.16049,-14.87385 6.4305,-2.0163 -27.3636,20.14279 -50.4776,45.21727 -72.97041,70.49766 -7.77269,9.5246 -16.42461,18.6653 -22.357456,29.53849 -4.196089,7.69021 -5.501341,11.37068 -9.192422,19.93422 -15.70111,40.57479 -30.482238,81.5195 -44.443529,122.7262 -6.158612,18.18427 -11.963333,36.47852 -18.998773,54.34799 -0.728178,1.78913 -1.45555,3.57859 -2.184534,5.3674 -0.584142,1.43339 -3.812889,9.33651 -3.893581,9.37404 -34.939915,16.25419 -37.523006,22.64887 -27.7781904,7.57543 C 31.317793,890.33853 67.798151,835.38 104.75756,780.82841 c 32.81291,-48.42393 63.56546,-98.21813 96.83155,-146.33658 7.73371,-11.0364 12.35377,-22.39074 33.60728,-16.87575 5.47571,1.42087 -6.98529,8.90169 -10.36771,13.43616 -19.39969,26.00716 -21.42405,29.48401 -41.46632,58.28481 -42.25223,62.20147 -83.402821,125.16522 -123.60302,188.71269 -7.860904,13.00844 -11.795179,19.24018 -18.938223,32.0042 -1.086658,1.94176 -8.121397,14.19991 -8.889679,18.23073 -0.106243,0.5574 0.847698,1.23713 1.368666,1.01223 2.604013,-1.12413 4.740641,-3.11521 7.110961,-4.67281 4.935456,-2.73035 10.180912,-4.96325 14.806367,-8.19105 1.409651,-0.98371 -6.290904,2.4479 -4.981135,1.33467 8.726374,-7.41695 18.37035,-13.68113 27.555526,-20.5217 10.213974,-8.52447 20.636899,-16.80464 30.641927,-25.57341 24.64858,-21.60294 37.51387,-34.79856 60.85621,-57.62491 33.95045,-34.64702 67.34723,-70.39653 94.74337,-110.58864 3.00212,-4.40433 5.77189,-8.96262 8.65784,-13.44393 4.77084,-8.49722 6.7215,-11.41665 10.44033,-19.87788 0.90507,-2.05925 1.84579,-4.12504 2.41475,-6.30126 0.16128,-0.61687 0.20868,-2.31186 -0.27232,-1.89332 -1.53215,1.33325 -5.36658,5.48728 -3.3788,5.07043 6.15944,-1.29169 11.41571,-5.30188 17.12357,-7.95282 -38.84174,32.40195 -73.91154,68.93875 -107.43474,106.72393 -22.79653,25.11642 -38.85835,54.97494 -55.57307,84.19953 -8.35807,14.78451 -17.02662,29.39825 -25.25349,44.2563 -6.32449,13.18316 -11.126918,26.91748 -18.142246,39.77801 -9.719875,16.78486 -22.025357,31.85939 -32.881727,47.90163 -9.715933,14.00829 -15.018801,16.84819 -38.208469,22.19123 -2.384992,0.5495 0.96985,-4.82105 1.843721,-7.1072 2.010643,-5.26009 10.836738,-22.32721 12.583404,-25.78673 3.557346,-6.60147 7.03809,-13.2448 10.672038,-19.80441 4.512525,-8.14553 8.931595,-16.34993 13.766047,-24.30861 15.492128,-25.50379 27.186178,-41.69259 44.930502,-66.61517 26.41242,-37.09724 31.58503,-43.71048 58.77526,-80.40168 38.61641,-51.54776 79.01878,-101.74201 120.87356,-150.69076 5.7789,-7.29879 16.97584,-24.01028 30.52821,-13.84589 5.64525,4.23398 -9.09533,10.79828 -13.38341,16.40256 -19.79667,25.8731 -23.87779,33.19569 -43.2239,62.27189 -42.8462,69.12581 -80.88735,141.16387 -114.55531,215.17193 -8.93982,20.50528 -17.5974,41.13104 -26.51823,61.64412 -6.02911,14.49753 -3.49352,15.42991 -33.675179,19.66344 -3.79949,0.53295 4.141358,-6.46246 6.343231,-9.60442 5.433149,-7.75282 11.038868,-15.38327 16.558308,-23.0749 76.33223,-104.65004 154.26242,-208.11458 231.91462,-311.78412 22.53418,-30.9153 46.29561,-60.91537 68.97795,-91.71915 3.34006,-4.53597 6.68037,-9.07655 9.81054,-13.75982 1.12711,-1.68637 1.14688,-4.38647 2.9451,-5.32487 9.16029,-4.78031 19.24851,-7.51956 28.87276,-11.27933 -3.63518,3.3345 -7.42692,6.50601 -10.90556,10.00352 -12.10623,12.17188 -24.16728,26.28073 -35.16462,39.28034 -26.86978,31.76198 -52.59371,64.42482 -78.33407,97.10026 -37.79551,49.37115 -76.1025,98.35089 -113.81967,147.7819 -8.91748,11.86007 -17.22178,24.15425 -26.21904,35.95248 -2.62267,3.43766 -5.13601,6.95159 -7.59334,10.50819 0,0 -31.72063,13.85459 -31.72063,13.85459 l 0,0 c 2.40663,-3.63735 4.96502,-7.15041 7.51551,-10.68834 9.42834,-12.38356 19.12125,-24.57466 28.51856,-36.98568 39.738,-49.61552 79.5992,-99.13403 118.18844,-149.65655 38.12146,-48.91342 75.6482,-98.43546 117.1635,-144.55994 11.57901,-5.00687 22.61928,-11.51315 34.73703,-15.02062 2.50324,-0.72456 -3.02736,4.24431 -4.6235,6.3043 -3.791,4.89265 -7.67326,9.71399 -11.53556,14.55055 -24.93538,31.22538 -50.1784,62.20916 -74.38636,94.00935 -77.91248,101.24869 -155.44759,202.90253 -226.38174,309.23119 -4.64974,7.25232 -9.42662,14.42469 -13.94921,21.75697 -1.76571,2.86267 -2.10025,6.96474 -4.90836,8.816 -38.822792,25.59401 -36.722678,24.64791 -29.722924,8.98269 10.073013,-21.10704 20.390974,-42.09978 30.163164,-63.35162 36.03208,-73.74133 75.02837,-146.03344 116.88421,-216.63699 20.05002,-31.98658 19.95496,-32.77708 39.50131,-60.92073 3.71455,-5.34835 6.21401,-11.94052 11.42415,-15.84658 11.44166,-8.57786 24.80148,-14.26137 37.50184,-20.83343 0.5377,-0.27824 -0.38174,1.1491 -0.57262,1.72365 -2.15382,2.42746 -4.30763,4.85492 -6.46145,7.28238 -44.51667,48.93743 -86.81251,99.89423 -126.51412,152.82223 -44.54551,60.20486 -90.261602,120.45453 -122.892928,188.2125 -2.279444,4.87138 -4.646383,9.70276 -6.838332,14.61412 -1.483356,3.32367 -2.679756,6.77131 -4.184975,10.08513 -0.672172,1.47983 -0.959436,3.41923 -2.339218,4.27824 -9.866354,6.14249 -20.439305,11.07482 -30.795218,16.35022 -3.175868,1.6179 16.579517,-10.25504 7.414859,-7.70395 10.916701,-15.90669 23.188226,-30.91366 32.93391,-47.59074 7.213794,-12.68441 12.130812,-26.24365 17.847068,-39.62472 8.31152,-15.24249 17.843253,-29.80349 26.453374,-44.87812 17.35112,-29.47008 33.48902,-59.95623 56.725,-85.40835 33.50688,-37.32125 68.50503,-73.30829 105.90966,-106.76038 13.38732,-8.50457 26.17219,-18.04148 40.16198,-25.51371 2.17785,-1.16323 5.19429,-0.99028 7.40635,0.10649 1.12027,0.55545 0.62729,2.51799 0.34259,3.73556 -0.55534,2.37492 -1.77015,4.54897 -2.79708,6.76122 -4.18368,9.01274 -6.01413,11.61656 -11.29797,20.70656 -3.07166,4.61756 -6.02349,9.31711 -9.21498,13.85268 -28.68757,40.76929 -63.28397,77.02714 -98.07602,112.5459 -29.21373,28.60896 -58.34771,57.14012 -90.07289,83.01045 -8.551637,6.97344 -17.053278,14.06453 -26.217284,20.2111 -15.829439,10.61728 -32.29522,20.25988 -48.668746,30.01721 -5.291663,3.15341 -10.868969,5.80071 -16.303453,8.70107 -3.524231,0.50459 -7.1016324,2.3053 -10.5726918,1.51375 -4.9839251,-1.13655 -0.8608434,-7.89585 1.4121722,-12.21494 8.0396816,-15.27669 17.9796546,-29.50631 26.9456046,-44.2234 41.919497,-63.27706 84.271508,-126.26636 125.854488,-189.7666 19.75352,-29.92841 19.5465,-29.71539 37.56149,-56.68563 2.86553,-4.28998 4.4029,-9.88749 8.6266,-12.84985 10.91153,-7.65294 23.66259,-12.2756 35.61225,-18.17768 0.76367,-0.37718 -1.33868,1.05345 -2.00802,1.58018 -1.87476,2.32321 -3.74953,4.64642 -5.62429,6.96963 -36.09756,48.0067 -68.30127,98.77392 -101.9728,148.47283 -35.77834,52.93843 -70.500591,106.60631 -107.663971,158.59427 -9.919952,14.39736 -2.405975,5.16952 -35.62767,20.31746 -0.528291,0.24088 0.82203,-0.83519 1.122115,-1.33225 2.4967228,-4.13554 3.8459956,-8.879 5.9269347,-13.20868 7.44482408,-18.251 14.4480215,-36.66451 21.1693913,-55.19659 14.730823,-40.68966 29.674685,-81.30247 43.32092,-122.37389 2.62835,-6.95561 4.79625,-13.32516 8.054269,-19.9443 5.734052,-11.64956 15.507828,-20.79538 23.538795,-30.79011 22.667716,-25.09712 45.431906,-50.44972 72.394756,-71.07545 22.52538,-16.0235 10.76667,-8.13385 50.25748,-31.08931 4.67005,-2.71463 14.49715,-9.60969 20.562,-6.32891 0.86254,0.46659 1.12162,1.60893 1.68244,2.4134 0.90588,8.89745 -0.54051,17.96195 -0.43433,26.88508 -0.72284,10.7038 -2.36564,21.29201 -3.86207,31.90964 -0.5276,2.50041 -1.11391,6.08626 -2.23683,8.47383 -3.47754,7.39395 -11.42974,12.1319 -17.21598,17.3889 -9.99539,8.06291 -19.9429,16.0947 -30.29851,23.69865 -4.14182,3.04127 -8.11779,6.33616 -12.49196,9.03258 -13.49854,8.32109 -27.2603,16.21332 -41.07911,23.99095 -4.39427,2.47323 -9.02552,4.49955 -13.53829,6.74932 -12.16546,4.8412 -24.164922,9.50994 -37.008188,12.27308 -4.01656,0.86414 -12.67147,2.74149 -17.217228,1.26955 -1.861764,-0.60284 -3.105748,-2.38174 -4.658622,-3.57261 0.03704,-1.69705 -0.387008,-3.46842 0.111109,-5.09114 0.882328,-2.87438 7.554084,-13.25875 8.662942,-15.02678 7.621936,-12.15288 15.488781,-24.15374 23.863529,-35.80497 21.247998,-30.15137 42.982658,-59.95799 64.246688,-90.09646 1.70408,-2.67672 3.39293,-5.36319 5.11224,-8.03015 0.83172,-1.29015 1.64556,-2.59371 2.54058,-3.84078 0.13278,-0.185 0.71983,-0.31219 0.5275,-0.4341 -1.30415,-0.82663 -3.65463,0.17498 -5.05675,0.0307 -11.87681,2.34404 -22.92027,12.45735 23.39177,-15.01946 4.16827,-2.47302 -14.47887,8.19051 -10.48539,7.67395 -20.07615,20.17851 -37.76866,42.68818 -55.1735,65.15099 -25.070801,35.7872 -50.411779,72.24144 -66.572793,113.08781 0,0 -31.135945,14.6226 -31.135945,14.6226 z"
       inkscape:connector-curvature="0" />
    <path
       style="fill:#00ff00;fill-opacity:1"
       id="path3424"
       d="m 436.72565,621.10769 c -2.68424,1.8102 -5.4852,3.45835 -8.05272,5.43061 -43.6251,33.51095 -74.09736,80.87256 -104.61147,125.7369 -38.18421,59.44791 -72.37832,121.40352 -104.02697,184.5481 -7.16093,13.90659 -13.43314,28.2105 -18.06265,43.14518 -4.49433,14.39948 -2.20811,7.99613 -33.05301,18.65424 -1.07004,0.36974 -0.33562,-2.24197 -0.40769,-3.37179 -0.27674,-4.33846 0.007,-6.90787 0.22636,-11.48456 0.84748,-3.69436 1.3348,-7.49029 2.54243,-11.08308 9.7111,-28.89138 27.90185,-57.39696 43.93444,-82.86286 22.47834,-35.70423 30.69011,-46.50378 55.08848,-81.34485 40.0023,-55.64123 82.25482,-109.69519 126.63414,-161.91372 11.77612,-12.72181 22.72555,-26.64947 43.16193,-28.1427 5.28921,-0.38646 1.4203,10.6801 0.49575,15.90219 -1.75703,9.92418 -5.31747,19.45146 -8.45089,29.03051 -8.40128,25.68314 -26.02277,72.85738 -34.85804,96.91045 -33.22647,88.1537 -67.72343,175.81499 -103.23123,263.07179 -2.64618,6.5735 -5.27533,13.1539 -7.93855,19.7206 -0.91384,2.2532 -8.20335,20.0651 -9.92035,24.0882 -0.84457,1.9788 -0.90921,4.6049 -2.63217,5.8936 -32.74021,24.4881 -30.04929,29.1539 -30.02619,9.0288 7.86647,-17.8114 11.37382,-26.3857 21.45854,-45.331 8.10132,-15.2193 16.67347,-30.1841 25.18709,-45.1766 30.18574,-53.15719 61.67968,-105.53174 93.14027,-157.93826 22.23087,-36.02108 44.06168,-72.29949 66.65334,-108.09788 7.7705,-12.313 16.04186,-24.2129 23.91705,-36.44088 9.20557,-2.6978 18.59475,-11.35297 27.61671,-8.09339 5.57636,2.01471 -7.12534,9.47891 -10.71007,14.20167 -5.23049,6.89098 -10.50909,13.74538 -15.73551,20.63944 -19.31395,25.47665 -38.50958,51.0441 -57.71055,76.6059 -28.9249,38.47219 -56.01957,78.31643 -78.72474,120.78567 -1.80884,3.63686 -3.61769,7.27372 -5.42654,10.91058 0,0 -30.19619,13.61506 -30.19619,13.61506 l 0,0 c 2.00668,-3.75554 4.01337,-7.51108 6.02006,-11.26663 23.97743,-42.73236 51.53036,-83.25576 81.10303,-122.31801 19.04186,-25.25451 38.05793,-50.50963 56.62699,-76.11528 4.82162,-6.64874 9.68654,-13.26733 14.39577,-19.99614 3.09745,-4.4258 4.66038,-10.27476 9.02112,-13.46317 10.79969,-7.89634 23.57364,-12.65802 35.36047,-18.98703 -10.96151,11.3351 -19.87049,25.13343 -28.65899,38.09775 -24.47022,36.09716 -47.65768,73.05703 -70.9522,109.91424 -31.52085,51.82865 -63.17789,103.5656 -91.69346,157.14065 -13.60666,25.56421 -23.43364,45.07261 -33.99564,70.89941 -2.11885,5.1811 -3.7963,10.532 -5.69445,15.798 -10.98684,6.0601 -20.70924,14.3982 -32.10018,19.6596 -2.10343,0.9716 2.33478,-4.0056 3.38619,-6.0703 7.51733,-14.762 13.83448,-30.1215 20.84437,-45.1184 38.9875,-86.98361 75.24339,-175.18143 107.5499,-264.8816 12.4483,-36.19065 20.91182,-58.60106 30.71052,-94.67993 2.4347,-8.96456 4.17127,-18.10488 6.13194,-27.18491 0.69918,-3.23792 -0.50845,-7.43509 1.84665,-9.76457 6.61411,-6.54214 14.73815,-11.81766 23.40117,-15.20854 4.36058,-1.70682 -6.62069,6.62404 -9.93104,9.93606 -46.89725,52.11327 -90.86424,106.90764 -131.83242,163.7941 -22.83315,32.77019 -33.34639,46.72348 -53.88813,80.58193 -15.15142,24.97372 -30.69496,51.46113 -39.28986,79.6526 -1.01182,3.31878 -1.42897,6.79047 -2.14346,10.18571 -0.0838,6.40059 -0.21478,5.31144 0.1486,10.75804 0.0553,0.82903 0.9152,2.03018 0.21857,2.48301 -40.97874,26.6375 -33.70291,26.9664 -29.079,13.11066 1.73723,-4.57578 3.12867,-9.21787 5.06135,-13.72815 4.56985,-10.66461 9.96132,-20.96413 15.53999,-31.12713 34.26983,-63.25891 69.99393,-125.79557 108.21081,-186.75614 28.90808,-43.82391 57.3705,-89.97626 98.00568,-124.1914 2.26867,-1.91024 4.76069,-3.53827 7.14103,-5.30741 0,0 32.25362,-12.48494 32.25362,-12.48494 z"
       inkscape:connector-curvature="0" />
  </g>
</svg>
