<?xml version="1.0" encoding="UTF-8" standalone="no"?>
<!-- Created with Inkscape (http://www.inkscape.org/) -->

<svg
   xmlns:dc="http://purl.org/dc/elements/1.1/"
   xmlns:cc="http://creativecommons.org/ns#"
   xmlns:rdf="http://www.w3.org/1999/02/22-rdf-syntax-ns#"
   xmlns:svg="http://www.w3.org/2000/svg"
   xmlns="http://www.w3.org/2000/svg"
   xmlns:sodipodi="http://sodipodi.sourceforge.net/DTD/sodipodi-0.dtd"
   xmlns:inkscape="http://www.inkscape.org/namespaces/inkscape"
   width="1920"
   height="1080"
   id="svg3360"
   version="1.1"
   inkscape:version="0.91 r13725"
   viewBox="0 0 1920 1080"
   sodipodi:docname="drawing.svg">
  <defs
     id="defs3362">
    <inkscape:perspective
       sodipodi:type="inkscape:persp3d"
       inkscape:vp_x="0 : 540 : 1"
       inkscape:vp_y="0 : 1000 : 0"
       inkscape:vp_z="1920 : 540 : 1"
       inkscape:persp3d-origin="960 : 360 : 1"
       id="perspective3368" />
  </defs>
  <sodipodi:namedview
     id="base"
     pagecolor="#ffffff"
     bordercolor="#666666"
     borderopacity="1.0"
     inkscape:pageopacity="0.0"
     inkscape:pageshadow="2"
     inkscape:zoom="0.42426407"
     inkscape:cx="683.64208"
     inkscape:cy="540"
     inkscape:document-units="px"
     inkscape:current-layer="layer2"
     showgrid="false"
     inkscape:window-width="1680"
     inkscape:window-height="1001"
     inkscape:window-x="0"
     inkscape:window-y="0"
     inkscape:window-maximized="1" />
  <metadata
     id="metadata3365">
    <rdf:RDF>
      <cc:Work
         rdf:about="">
        <dc:format>image/svg+xml</dc:format>
        <dc:type
           rdf:resource="http://purl.org/dc/dcmitype/StillImage" />
        <dc:title></dc:title>
      </cc:Work>
    </rdf:RDF>
  </metadata>
  <g
     id="layer1"
     inkscape:label="Layer 1"
     inkscape:groupmode="layer"
     sodipodi:insensitive="true">
    <rect
       style="fill:#ffffff;fill-opacity:1"
       id="rect3384"
       width="1928.0444"
       height="1077.1593"
       x="0"
       y="2.8406696" />
  </g>
  <g
     inkscape:groupmode="layer"
     id="layer2"
     inkscape:label="Layer 2"
     style="display:inline">
    <path
       style="fill:#00ff00;fill-opacity:1"
       id="path3420"
       d="m -14.9105,753.23477 c 26.648111,-24.30729 51.502699,-50.52573 76.591368,-76.42243 17.20947,-17.08782 34.542328,-34.045 51.571412,-51.31403 6.66952,-7.22422 14.56884,-13.07073 21.97752,-19.46852 3.35836,-3.35364 7.35776,-5.87881 11.2851,-8.48664 11.04798,-7.74148 23.83984,-13.8236 35.01774,-20.53856 9.29386,-5.58315 -18.77228,10.85348 -28.19456,16.21707 -0.98155,0.55874 1.23005,-0.83793 3.49648,-2.27676 5.55355,-3.57659 10.36707,-8.1257 15.63863,-12.06582 0,0 32.40746,-12.63558 32.40746,-12.63558 l 0,0 c -5.70984,3.18457 -10.11266,8.23071 -15.47777,11.96118 -10.99958,7.66945 -25.07847,14.51084 -35.08947,20.76554 -9.17497,5.73236 18.6864,-10.908 28.06173,-16.30646 1.11073,-0.63957 -4.08414,2.69519 -3.29142,1.98783 -3.77264,2.97573 -8.21151,4.9733 -11.74104,8.26936 -7.29814,6.8665 -15.85265,12.30109 -22.78537,19.60067 -17.62942,17.57339 -35.59514,34.79219 -53.504665,52.07809 -24.64028,25.19655 -48.898048,50.79414 -74.089618,75.43262 0,0 -31.873527,13.20244 -31.873527,13.20244 z"
       inkscape:connector-curvature="0" />
    <path
       style="fill:#00ff00;fill-opacity:1"
       id="path3422"
       d="m 14.407942,785.25152 c 18.596901,-40.91326 43.898746,-78.3629 69.249391,-115.32011 16.451287,-22.20042 33.480397,-44.11653 52.222887,-64.4526 12.93615,-11.89043 28.46279,-25.95133 46.57268,-26.61826 14.58912,-0.39923 3.12999,14.07839 -0.4607,19.63832 -22.26604,29.96631 -44.22974,60.14996 -65.53896,90.80612 -8.0275,11.48344 -15.68968,23.21979 -22.933428,35.21287 -1.196103,1.98033 -6.946596,11.4733 -7.994899,14.42886 -0.392905,1.10775 -0.176813,2.34407 -0.26522,3.51611 18.713547,-0.17439 36.775937,-7.74713 53.822027,-14.72134 4.40529,-2.28573 17.07103,-9.98272 13.21587,-6.85719 -4.38959,3.5588 -9.40415,9.69507 -14.84846,8.18079 -4.93561,-1.3728 8.43814,-5.81314 12.59482,-8.80762 10.1932,-7.34321 19.89672,-15.22804 29.60252,-23.1913 5.54958,-5.05362 12.42464,-9.49641 16.47379,-16.02662 1.65968,-2.67664 1.90857,-4.32357 2.83945,-7.40418 2.11651,-10.36176 3.35838,-20.87351 4.21042,-31.4064 0.25037,-8.67228 1.25044,-17.47288 0.32156,-26.1344 -1.67064,-1.22208 -0.25084,-0.55995 -3.25243,1.11444 -4.69801,2.62071 -18.91621,10.25708 -14.18168,7.70292 20.02795,-10.80458 25.16049,-14.87385 6.4305,-2.0163 -27.3636,20.14279 -50.4776,45.21727 -72.97041,70.49766 -7.77269,9.5246 -16.42461,18.6653 -22.357456,29.53849 -4.196089,7.69021 -5.501341,11.37068 -9.192422,19.93422 -15.70111,40.57479 -30.482238,81.5195 -44.443529,122.7262 -6.158612,18.18427 -11.963333,36.47852 -18.998773,54.34799 -0.728178,1.78913 -1.45555,3.57859 -2.184534,5.3674 -0.584142,1.43339 -3.812889,9.33651 -3.893581,9.37404 -34.939915,16.25419 -37.523006,22.64887 -27.7781904,7.57543 C 31.317793,890.33853 67.798151,835.38 104.75756,780.82841 c 32.81291,-48.42393 63.56546,-98.21813 96.83155,-146.33658 7.73371,-11.0364 12.35377,-22.39074 33.60728,-16.87575 5.47571,1.42087 -6.98529,8.90169 -10.36771,13.43616 -19.39969,26.00716 -21.42405,29.48401 -41.46632,58.28481 -42.25223,62.20147 -83.402821,125.16522 -123.60302,188.71269 -7.860904,13.00844 -11.795179,19.24018 -18.938223,32.0042 -1.086658,1.94176 -8.121397,14.19991 -8.889679,18.23073 -0.106243,0.5574 0.847698,1.23713 1.368666,1.01223 2.604013,-1.12413 4.740641,-3.11521 7.110961,-4.67281 4.935456,-2.73035 10.180912,-4.96325 14.806367,-8.19105 1.409651,-0.98371 -6.290904,2.4479 -4.981135,1.33467 8.726374,-7.41695 18.37035,-13.68113 27.555526,-20.5217 10.213974,-8.52447 20.636899,-16.80464 30.641927,-25.57341 24.64858,-21.60294 37.51387,-34.79856 60.85621,-57.62491 33.95045,-34.64702 67.34723,-70.39653 94.74337,-110.58864 3.00212,-4.40433 5.77189,-8.96262 8.65784,-13.44393 4.77084,-8.49722 6.7215,-11.41665 10.44033,-19.87788 0.90507,-2.05925 1.84579,-4.12504 2.41475,-6.30126 0.16128,-0.61687 0.20868,-2.31186 -0.27232,-1.89332 -1.53215,1.33325 -5.36658,5.48728 -3.3788,5.07043 6.15944,-1.29169 11.41571,-5.30188 17.12357,-7.95282 -38.84174,32.40195 -73.91154,68.93875 -107.43474,106.72393 -22.79653,25.11642 -38.85835,54.97494 -55.57307,84.19953 -8.35807,14.78451 -17.02662,29.39825 -25.25349,44.2563 -6.32449,13.18316 -11.126918,26.91748 -18.142246,39.77801 -9.719875,16.78486 -22.025357,31.85939 -32.881727,47.90163 -9.715933,14.00829 -15.018801,16.84819 -38.208469,22.19123 -2.384992,0.5495 0.96985,-4.82105 1.843721,-7.1072 2.010643,-5.26009 10.836738,-22.32721 12.583404,-25.78673 3.557346,-6.60147 7.03809,-13.2448 10.672038,-19.80441 4.512525,-8.14553 8.931595,-16.34993 13.766047,-24.30861 15.492128,-25.50379 27.186178,-41.69259 44.930502,-66.61517 26.41242,-37.09724 31.58503,-43.71048 58.77526,-80.40168 38.61641,-51.54776 79.01878,-101.74201 120.87356,-150.69076 5.7789,-7.29879 16.97584,-24.01028 30.52821,-13.84589 5.64525,4.23398 -9.09533,10.79828 -13.38341,16.40256 -19.79667,25.8731 -23.87779,33.19569 -43.2239,62.27189 -42.8462,69.12581 -80.88735,141.16387 -114.55531,215.17193 -8.93982,20.50528 -17.5974,41.13104 -26.51823,61.64412 -6.02911,14.49753 -3.49352,15.42991 -33.675179,19.66344 -3.79949,0.53295 4.141358,-6.46246 6.343231,-9.60442 5.433149,-7.75282 11.038868,-15.38327 16.558308,-23.0749 76.33223,-104.65004 154.26242,-208.11458 231.91462,-311.78412 22.53418,-30.9153 46.29561,-60.91537 68.97795,-91.71915 3.34006,-4.53597 6.68037,-9.07655 9.81054,-13.75982 1.12711,-1.68637 1.14688,-4.38647 2.9451,-5.32487 9.16029,-4.78031 19.24851,-7.51956 28.87276,-11.27933 -3.63518,3.3345 -7.42692,6.50601 -10.90556,10.00352 -12.10623,12.17188 -24.16728,26.28073 -35.16462,39.28034 -26.86978,31.76198 -52.59371,64.42482 -78.33407,97.10026 -37.79551,49.37115 -76.1025,98.35089 -113.81967,147.7819 -8.91748,11.86007 -17.22178,24.15425 -26.21904,35.95248 -2.62267,3.43766 -5.13601,6.95159 -7.59334,10.50819 0,0 -31.72063,13.85459 -31.72063,13.85459 l 0,0 c 2.40663,-3.63735 4.96502,-7.15041 7.51551,-10.68834 9.42834,-12.38356 19.12125,-24.57466 28.51856,-36.98568 39.738,-49.61552 79.5992,-99.13403 118.18844,-149.65655 38.12146,-48.91342 75.6482,-98.43546 117.1635,-144.55994 11.57901,-5.00687 22.61928,-11.51315 34.73703,-15.02062 2.50324,-0.72456 -3.02736,4.24431 -4.6235,6.3043 -3.791,4.89265 -7.67326,9.71399 -11.53556,14.55055 -24.93538,31.22538 -50.1784,62.20916 -74.38636,94.00935 -77.91248,101.24869 -155.44759,202.90253 -226.38174,309.23119 -4.64974,7.25232 -9.42662,14.42469 -13.94921,21.75697 -1.76571,2.86267 -2.10025,6.96474 -4.90836,8.816 -38.822792,25.59401 -36.722678,24.64791 -29.722924,8.98269 10.073013,-21.10704 20.390974,-42.09978 30.163164,-63.35162 36.03208,-73.74133 75.02837,-146.03344 116.88421,-216.63699 20.05002,-31.98658 19.95496,-32.77708 39.50131,-60.92073 3.71455,-5.34835 6.21401,-11.94052 11.42415,-15.84658 11.44166,-8.57786 24.80148,-14.26137 37.50184,-20.83343 0.5377,-0.27824 -0.38174,1.1491 -0.57262,1.72365 -2.15382,2.42746 -4.30763,4.85492 -6.46145,7.28238 -44.51667,48.93743 -86.81251,99.89423 -126.51412,152.82223 -44.54551,60.20486 -90.261602,120.45453 -122.892928,188.2125 -2.279444,4.87138 -4.646383,9.70276 -6.838332,14.61412 -1.483356,3.32367 -2.679756,6.77131 -4.184975,10.08513 -0.672172,1.47983 -0.959436,3.41923 -2.339218,4.27824 -9.866354,6.14249 -20.439305,11.07482 -30.795218,16.35022 -3.175868,1.6179 16.579517,-10.25504 7.414859,-7.70395 10.916701,-15.90669 23.188226,-30.91366 32.93391,-47.59074 7.213794,-12.68441 12.130812,-26.24365 17.847068,-39.62472 8.31152,-15.24249 17.843253,-29.80349 26.453374,-44.87812 17.35112,-29.47008 33.48902,-59.95623 56.725,-85.40835 33.50688,-37.32125 68.50503,-73.30829 105.90966,-106.76038 13.38732,-8.50457 26.17219,-18.04148 40.16198,-25.51371 2.17785,-1.16323 5.19429,-0.99028 7.40635,0.10649 1.12027,0.55545 0.62729,2.51799 0.34259,3.73556 -0.55534,2.37492 -1.77015,4.54897 -2.79708,6.76122 -4.18368,9.01274 -6.01413,11.61656 -11.29797,20.70656 -3.07166,4.61756 -6.02349,9.31711 -9.21498,13.85268 -28.68757,40.76929 -63.28397,77.02714 -98.07602,112.5459 -29.21373,28.60896 -58.34771,57.14012 -90.07289,83.01045 -8.551637,6.97344 -17.053278,14.06453 -26.217284,20.2111 -15.829439,10.61728 -32.29522,20.25988 -48.668746,30.01721 -5.291663,3.15341 -10.868969,5.80071 -16.303453,8.70107 -3.524231,0.50459 -7.1016324,2.3053 -10.5726918,1.51375 -4.9839251,-1.13655 -0.8608434,-7.89585 1.4121722,-12.21494 8.0396816,-15.27669 17.9796546,-29.50631 26.9456046,-44.2234 41.919497,-63.27706 84.271508,-126.26636 125.854488,-189.7666 19.75352,-29.92841 19.5465,-29.71539 37.56149,-56.68563 2.86553,-4.28998 4.4029,-9.88749 8.6266,-12.84985 10.91153,-7.65294 23.66259,-12.2756 35.61225,-18.17768 0.76367,-0.37718 -1.33868,1.05345 -2.00802,1.58018 -1.87476,2.32321 -3.74953,4.64642 -5.62429,6.96963 -36.09756,48.0067 -68.30127,98.77392 -101.9728,148.47283 -35.77834,52.93843 -70.500591,106.60631 -107.663971,158.59427 -9.919952,14.39736 -2.405975,5.16952 -35.62767,20.31746 -0.528291,0.24088 0.82203,-0.83519 1.122115,-1.33225 2.4967228,-4.13554 3.8459956,-8.879 5.9269347,-13.20868 7.44482408,-18.251 14.4480215,-36.66451 21.1693913,-55.19659 14.730823,-40.68966 29.674685,-81.30247 43.32092,-122.37389 2.62835,-6.95561 4.79625,-13.32516 8.054269,-19.9443 5.734052,-11.64956 15.507828,-20.79538 23.538795,-30.79011 22.667716,-25.09712 45.431906,-50.44972 72.394756,-71.07545 22.52538,-16.0235 10.76667,-8.13385 50.25748,-31.08931 4.67005,-2.71463 14.49715,-9.60969 20.562,-6.32891 0.86254,0.46659 1.12162,1.60893 1.68244,2.4134 0.90588,8.89745 -0.54051,17.96195 -0.43433,26.88508 -0.72284,10.7038 -2.36564,21.29201 -3.86207,31.90964 -0.5276,2.50041 -1.11391,6.08626 -2.23683,8.47383 -3.47754,7.39395 -11.42974,12.1319 -17.21598,17.3889 -9.99539,8.06291 -19.9429,16.0947 -30.29851,23.69865 -4.14182,3.04127 -8.11779,6.33616 -12.49196,9.03258 -13.49854,8.32109 -27.2603,16.21332 -41.07911,23.99095 -4.39427,2.47323 -9.02552,4.49955 -13.53829,6.74932 -12.16546,4.8412 -24.164922,9.50994 -37.008188,12.27308 -4.01656,0.86414 -12.67147,2.74149 -17.217228,1.26955 -1.861764,-0.60284 -3.105748,-2.38174 -4.658622,-3.57261 0.03704,-1.69705 -0.387008,-3.46842 0.111109,-5.09114 0.882328,-2.87438 7.554084,-13.25875 8.662942,-15.02678 7.621936,-12.15288 15.488781,-24.15374 23.863529,-35.80497 21.247998,-30.15137 42.982658,-59.95799 64.246688,-90.09646 1.70408,-2.67672 3.39293,-5.36319 5.11224,-8.03015 0.83172,-1.29015 1.64556,-2.59371 2.54058,-3.84078 0.13278,-0.185 0.71983,-0.31219 0.5275,-0.4341 -1.30415,-0.82663 -3.65463,0.17498 -5.05675,0.0307 -11.87681,2.34404 -22.92027,12.45735 23.39177,-15.01946 4.16827,-2.47302 -14.47887,8.19051 -10.48539,7.67395 -20.07615,20.17851 -37.76866,42.68818 -55.1735,65.15099 -25.070801,35.7872 -50.411779,72.24144 -66.572793,113.08781 0,0 -31.135945,14.6226 -31.135945,14.6226 z"
       inkscape:connector-curvature="0" />
    <path
       style="fill:#00ff00;fill-opacity:1"
       id="path3424"
       d="m 436.72565,621.10769 c -2.68424,1.8102 -5.4852,3.45835 -8.05272,5.43061 -43.6251,33.51095 -74.09736,80.87256 -104.61147,125.7369 -38.18421,59.44791 -72.37832,121.40352 -104.02697,184.5481 -7.16093,13.90659 -13.43314,28.2105 -18.06265,43.14518 -4.49433,14.39948 -2.20811,7.99613 -33.05301,18.65424 -1.07004,0.36974 -0.33562,-2.24197 -0.40769,-3.37179 -0.27674,-4.33846 0.007,-6.90787 0.22636,-11.48456 0.84748,-3.69436 1.3348,-7.49029 2.54243,-11.08308 9.7111,-28.89138 27.90185,-57.39696 43.93444,-82.86286 22.47834,-35.70423 30.69011,-46.50378 55.08848,-81.34485 40.0023,-55.64123 82.25482,-109.69519 126.63414,-161.91372 11.77612,-12.72181 22.72555,-26.64947 43.16193,-28.1427 5.28921,-0.38646 1.4203,10.6801 0.49575,15.90219 -1.75703,9.92418 -5.31747,19.45146 -8.45089,29.03051 -8.40128,25.68314 -26.02277,72.85738 -34.85804,96.91045 -33.22647,88.1537 -67.72343,175.81499 -103.23123,263.07179 -2.64618,6.5735 -5.27533,13.1539 -7.93855,19.7206 -0.91384,2.2532 -8.20335,20.0651 -9.92035,24.0882 -0.84457,1.9788 -0.90921,4.6049 -2.63217,5.8936 -32.74021,24.4881 -30.04929,29.1539 -30.02619,9.0288 7.86647,-17.8114 11.37382,-26.3857 21.45854,-45.331 8.10132,-15.2193 16.67347,-30.1841 25.18709,-45.1766 30.18574,-53.15719 61.67968,-105.53174 93.14027,-157.93826 22.23087,-36.02108 44.06168,-72.29949 66.65334,-108.09788 7.7705,-12.313 16.04186,-24.2129 23.91705,-36.44088 9.20557,-2.6978 18.59475,-11.35297 27.61671,-8.09339 5.57636,2.01471 -7.12534,9.47891 -10.71007,14.20167 -5.23049,6.89098 -10.50909,13.74538 -15.73551,20.63944 -19.31395,25.47665 -38.50958,51.0441 -57.71055,76.6059 -28.9249,38.47219 -56.01957,78.31643 -78.72474,120.78567 -1.80884,3.63686 -3.61769,7.27372 -5.42654,10.91058 0,0 -30.19619,13.61506 -30.19619,13.61506 l 0,0 c 2.00668,-3.75554 4.01337,-7.51108 6.02006,-11.26663 23.97743,-42.73236 51.53036,-83.25576 81.10303,-122.31801 19.04186,-25.25451 38.05793,-50.50963 56.62699,-76.11528 4.82162,-6.64874 9.68654,-13.26733 14.39577,-19.99614 3.09745,-4.4258 4.66038,-10.27476 9.02112,-13.46317 10.79969,-7.89634 23.57364,-12.65802 35.36047,-18.98703 -10.96151,11.3351 -19.87049,25.13343 -28.65899,38.09775 -24.47022,36.09716 -47.65768,73.05703 -70.9522,109.91424 -31.52085,51.82865 -63.17789,103.5656 -91.69346,157.14065 -13.60666,25.56421 -23.43364,45.07261 -33.99564,70.89941 -2.11885,5.1811 -3.7963,10.532 -5.69445,15.798 -10.98684,6.0601 -20.70924,14.3982 -32.10018,19.6596 -2.10343,0.9716 2.33478,-4.0056 3.38619,-6.0703 7.51733,-14.762 13.83448,-30.1215 20.84437,-45.1184 38.9875,-86.98361 75.24339,-175.18143 107.5499,-264.8816 12.4483,-36.19065 20.91182,-58.60106 30.71052,-94.67993 2.4347,-8.96456 4.17127,-18.10488 6.13194,-27.18491 0.69918,-3.23792 -0.50845,-7.43509 1.84665,-9.76457 6.61411,-6.54214 14.73815,-11.81766 23.40117,-15.20854 4.36058,-1.70682 -6.62069,6.62404 -9.93104,9.93606 -46.89725,52.11327 -90.86424,106.90764 -131.83242,163.7941 -22.83315,32.77019 -33.34639,46.72348 -53.88813,80.58193 -15.15142,24.97372 -30.69496,51.46113 -39.28986,79.6526 -1.01182,3.31878 -1.42897,6.79047 -2.14346,10.18571 -0.0838,6.40059 -0.21478,5.31144 0.1486,10.75804 0.0553,0.82903 0.9152,2.03018 0.21857,2.48301 -40.97874,26.6375 -33.70291,26.9664 -29.079,13.11066 1.73723,-4.57578 3.12867,-9.21787 5.06135,-13.72815 4.56985,-10.66461 9.96132,-20.96413 15.53999,-31.12713 34.26983,-63.25891 69.99393,-125.79557 108.21081,-186.75614 28.90808,-43.82391 57.3705,-89.97626 98.00568,-124.1914 2.26867,-1.91024 4.76069,-3.53827 7.14103,-5.30741 0,0 32.25362,-12.48494 32.25362,-12.48494 z"
       inkscape:connector-curvature="0" />
    <path
       style="fill:#00ff00;fill-opacity:1"
       id="path3426"
       d="m 443.39108,604.0742 c 17.85324,53.75077 35.77604,107.47306 53.95939,161.11459 15.77894,46.15762 32.43799,92.01466 49.97763,137.53198 3.43119,8.30095 6.34719,16.79318 9.39676,25.23482 0.9391,2.59957 2.2628,7.49079 2.49811,5.15548 -10.10601,5.16593 -19.57649,11.83209 -30.31805,15.49779 -1.68555,0.57522 0.39006,-3.54212 0.49439,-5.32006 0.20863,-3.55521 0.32334,-7.11548 0.44423,-10.67476 0.81585,-24.02103 0.99246,-47.97388 0.89236,-72.00954 -2.02896,-48.63898 -12.24527,-96.46576 -27.0029,-142.74426 -7.48947,-23.48627 -11.83023,-33.52319 -20.58297,-55.74362 -6.94684,-15.84043 -13.45106,-31.94337 -21.33326,-47.36059 -2.80052,-5.47767 -5.63565,-10.44887 -10.08566,-14.66856 -0.62698,-0.2463 -1.20739,-0.72862 -1.88093,-0.73891 -0.45608,-0.007 -1.58219,0.90813 -1.18045,0.69212 9.76098,-5.24837 19.44507,-10.64087 29.25896,-15.78963 0.41338,-0.21688 -1.69465,0.48519 -1.78066,3.39673 -0.0497,1.68208 0.31689,3.35068 0.47534,5.02602 0.78657,2.77028 1.39325,5.59808 2.35971,8.31085 5.24865,14.73247 12.96922,28.61062 19.47089,42.79315 8.43711,18.40443 9.74462,21.92885 17.7108,40.83768 17.18973,43.04367 29.32729,87.80403 41.85635,132.3529 4.6878,18.90964 11.19449,37.34642 15.46298,56.36034 2.86706,13.07904 3.77246,26.4761 4.67749,39.80384 -0.0692,2.31285 1.67966,17.16043 -0.16492,18.41622 -10.50114,7.14919 -21.68639,13.23784 -32.52959,19.85677 -22.63663,-1.91058 -44.17513,-9.69843 -64.90668,-18.56492 -3.2932,-1.69466 -6.69483,-3.19341 -9.87961,-5.08399 -11.91096,-7.07072 -22.48222,-16.32319 -32.98079,-25.26263 -12.16418,-10.35767 -11.87655,-10.19776 -23.82912,-20.74618 -26.3677,-23.64947 -50.65752,-49.59198 -74.10697,-76.10667 -23.50201,-28.40986 -45.13688,-58.33275 -66.54783,-88.33555 -2.26575,-2.99754 -4.48234,-6.03287 -6.79725,-8.9926 -9.63608,-12.32019 -22.76529,-15.32379 29.09557,-17.70574 4.235,-0.19451 4.89394,6.92516 7.42971,10.32266 3.52495,4.72281 7.167,9.35709 10.75051,14.03564 28.51884,36.09838 61.25199,68.55972 94.55006,100.19416 17.89231,16.43244 34.63288,34.05015 51.99336,51.0257 13.30383,12.64428 6.89442,6.45153 19.24535,18.56055 8.7352,7.71363 16.25008,16.78756 25.29914,24.15936 4.4476,3.62324 6.96121,5.02694 11.83925,8.14873 11.25112,6.98309 23.49922,12.71725 33.90563,21.00541 2.19232,1.74607 4.21763,3.69211 6.32644,5.53816 2.0831,2.28537 4.23816,4.50718 6.2493,6.85612 2.91907,3.40938 10.80387,13.52998 13.50654,16.82062 6.20989,7.56084 12.75679,14.81659 19.352,22.03879 -9.35037,1.73056 10.39204,5.58885 7.36871,7.23435 -10.36729,5.64258 -20.91849,11.79658 -32.50585,14.04438 -2.74218,0.5319 -3.21776,-4.5688 -4.91846,-6.7847 -6.19475,-8.07126 -12.61344,-15.96841 -18.86317,-23.99721 -38.74778,-51.35778 -74.24997,-104.99308 -108.64055,-159.32759 -15.78749,-25.6141 -32.09422,-50.982 -46.22825,-77.56674 0,0 29.66925,-16.85863 29.66925,-16.85863 l 0,0 c 12.26485,27.40919 27.68824,53.27528 42.55042,79.31832 33.09078,55.07764 68.20665,109.09069 110.17604,157.92682 4.00716,4.59149 8.01433,9.18299 12.02149,13.77448 2.79332,3.13152 5.61848,6.23492 8.37996,9.39455 1.87538,2.14576 7.24573,4.24534 5.52954,6.52043 -23.81606,31.57217 -21.48481,27.55487 -33.48264,13.82327 -13.00828,-15.06389 -25.27782,-30.78594 -38.90453,-45.28932 -12.33615,-10.22937 -26.09387,-18.33448 -40.09342,-26.08988 -5.05253,-3.25838 -7.69652,-4.71943 -12.24618,-8.58523 -8.86718,-7.53434 -15.98473,-16.93565 -24.52961,-24.80374 -12.00045,-12.29459 -5.74793,-5.99313 -18.77903,-18.88304 -16.9477,-17.21503 -33.33725,-34.99242 -50.95008,-51.54771 -33.12541,-32.08617 -65.6566,-64.87296 -95.43716,-100.13078 -3.84444,-4.53668 -7.67488,-9.08526 -11.53333,-13.61003 -2.78085,-3.26107 -10.44207,-5.98782 -8.38445,-9.74733 5.5066,-10.06121 17.41555,-14.93071 26.03336,-22.49933 0.15663,-0.13756 -0.69811,-0.0204 -0.60318,0.1652 1.00045,1.95594 2.31725,3.73402 3.53343,5.56364 2.08232,3.13267 4.24054,6.21423 6.36081,9.32134 20.38129,30.51531 41.89836,60.36805 65.43209,88.53934 23.58288,26.32666 48.39065,51.6221 74.59605,75.35335 20.78559,18.35368 41.57276,37.62663 66.74577,49.82101 17.09492,7.44871 38.68417,16.01982 57.55317,16.14332 2.25736,0.0148 4.47636,-0.58801 6.71454,-0.88202 -8.74491,5.50591 -17.32523,11.28234 -26.23473,16.51773 -0.62689,0.36837 0.97583,-1.12602 1.2118,-1.81377 1.65241,-4.81609 -0.52052,-10.57676 0.17367,-15.48195 -0.54891,-13.19203 -1.42852,-26.42784 -4.4167,-39.33034 -3.96533,-19.21939 -8.91209,-38.22289 -13.28396,-57.35157 -11.3688,-44.77765 -23.44207,-89.46747 -41.09315,-132.26365 -8.73003,-20.25448 -8.69224,-20.8558 -18.23852,-40.34924 -6.92927,-14.14954 -15.01792,-27.83237 -21.254,-42.31633 -1.19299,-2.77087 -2.10159,-5.65571 -3.15239,-8.48357 -0.7636,-3.39422 -1.67864,-5.8162 -1.38145,-9.20803 1.13678,-12.97372 25.69139,-27.62108 36.55069,-17.47275 6.62231,8.35157 10.10849,18.47048 14.01994,28.27863 7.06675,17.72023 6.9216,17.55443 14.35509,36.9396 7.63072,21.34304 12.60242,34.52376 19.34866,56.69031 14.1605,46.52808 24.85995,94.32374 28.29518,142.92756 0.86582,23.4944 1.42323,46.99049 2.24977,70.48504 0.12097,3.43844 0.25178,6.87657 0.40022,10.31394 0.078,1.80722 1.69304,4.29114 0.27922,5.41952 -9.42797,7.52453 -20.54936,12.639 -30.82404,18.95851 -1.5948,-2.32451 -2.00836,-5.01654 -2.76513,-7.72729 -2.42449,-8.68446 -5.10542,-17.29043 -8.048,-25.8151 -15.69936,-46.43403 -31.04772,-92.98623 -46.60407,-139.4682 -11.5051,-34.02691 -23.1225,-68.00159 -35.65261,-101.66895 -5.79863,-15.58044 -11.40279,-30.28764 -18.0329,-45.43276 -1.62493,-3.71183 -3.46309,-7.32663 -5.19463,-10.98994 0,0 30.15669,-16.93689 30.15669,-16.93689 z"
       inkscape:connector-curvature="0" />
    <path
       style="fill:#00ff00;fill-opacity:1"
       id="path3428"
       d="m 533.64356,609.22986 c 11.52026,27.52357 19.54488,56.32308 27.56563,85.00434 3.18794,11.39972 6.32433,22.81379 9.48649,34.22069 3.30881,11.82408 6.61763,23.64815 9.92644,35.47223 14.48038,54.57081 31.84276,108.3199 53.73394,160.37069 6.94208,15.79605 3.48561,8.49529 10.22235,21.97131 0,0 -29.12477,16.47894 -29.12477,16.47894 l 0,0 c -6.10609,-14.04505 -3.00193,-6.46724 -9.16701,-22.7925 C 586.6258,886.7408 570.10736,832.46682 555.35511,777.6928 c -6.43679,-22.44002 -13.33939,-46.87841 -20.16853,-69.23219 -8.54697,-27.97672 -17.4231,-56.2059 -31.37931,-82.04932 0,0 29.83629,-17.18143 29.83629,-17.18143 z"
       inkscape:connector-curvature="0" />
    <path
       style="fill:#00ff00;fill-opacity:1"
       id="path3430"
       d="m 566.65829,872.9596 c 0.7194,-3.54821 1.17871,-7.15924 2.1582,-10.64462 5.01725,-17.85319 12.48478,-37.75528 19.23539,-54.64687 16.57614,-41.47732 35.55341,-81.8682 54.51174,-122.28808 23.24253,-48.8858 47.40073,-97.31438 73.24282,-144.87574 1.92423,-3.54614 3.85521,-7.08862 5.77268,-10.63842 0.26102,-0.48323 8.26646,-16.20309 9.2242,-16.73596 33.83626,-18.82568 31.64442,-27.20358 31.94083,-8.93405 -7.4488,25.01164 -16.60168,49.4534 -24.19243,74.43089 -5.93245,18.63081 -11.87345,37.34213 -19.69212,55.29346 -3.42736,7.86906 -16.71553,35.44809 -19.60428,41.48919 -27.98519,57.80533 -50.30361,118.09027 -73.41814,177.94275 -3.62946,10.7865 -8.36822,21.17392 -12.07238,31.93416 -0.91879,2.66899 -2.18696,5.31554 -2.35862,8.13302 -0.0381,0.62494 2.397,0.0902 1.84019,0.37646 -7.25604,3.73067 -14.88128,13.57031 -22.28081,10.13302 -6.19453,-2.87752 10.4459,-8.80297 15.66885,-13.20445 49.34257,-47.13699 91.61074,-101.01635 131.38162,-156.28684 20.13913,-28.13747 38.75958,-57.30496 53.19796,-88.78551 4.49628,-9.85989 7.1598,-20.30765 9.05436,-30.92926 0.9504,-6.42684 1.43068,-12.90973 1.74674,-19.39471 0.10708,-2.19707 0.51347,-7.83712 -0.15373,-10.27269 -0.25136,-0.9176 -1.01899,-1.60697 -1.52849,-2.41045 -0.58671,-1.83082 -11.45867,4.88305 -8.67532,3.48213 6.71555,-3.38011 12.63178,-11.72254 20.02789,-10.37296 5.70408,1.04084 -8.83473,7.53534 -12.8952,11.67448 -13.0102,13.26226 -18.85197,21.85256 -30.44238,36.88119 -32.37518,43.796 -59.32394,91.10976 -84.41862,139.33634 -6.83463,13.80067 -13.89815,27.5491 -19.51872,41.90967 -0.1686,0.43078 -4.52802,10.63256 -3.33955,13.25251 0.34826,0.76775 1.68374,-0.0888 2.52562,-0.13319 5.70434,2.44378 14.71182,-13.91728 19.29366,-8.5752 2.8902,3.36975 -15.17696,9.17877 -11.58517,6.56964 6.08607,-4.42102 12.86078,-7.81751 19.09597,-12.02561 18.57019,-12.53292 22.23609,-16.18001 39.73301,-30.42532 25.9867,-22.27695 48.09025,-48.70476 66.92902,-77.21702 9.32165,-14.10821 11.90813,-19.41892 19.73009,-33.62962 1.16681,-2.37813 8.80627,-17.69229 10.33092,-21.60313 0.51714,-1.32649 0.23,-5.36914 0.97797,-4.15772 0.77443,1.25429 -2.29277,4.71327 -0.86768,4.33635 8.05718,-2.13102 14.60036,-11.33719 22.84964,-10.15029 5.18851,0.74652 -6.79897,7.98036 -10.19845,11.97053 -31.10015,39.60697 -57.68996,82.49102 -85.89941,124.15206 -25.52927,38.26498 -53.4634,74.75462 -81.9433,110.83504 -16.97674,20.19125 -31.1327,42.39366 -43.91847,65.40504 -7.25975,12.9565 -14.17006,26.09337 -20.99857,39.27941 -4.67929,11.33955 -1.83606,5.42419 -30.96417,13.73143 -2.40012,0.6845 3.62939,-3.42726 5.41548,-5.17053 9.2807,-9.05817 18.61921,-18.01552 28.09315,-26.87424 12.27897,-11.7723 6.34517,-6.10872 17.7962,-16.99621 0,0 30.79789,-12.64362 30.79789,-12.64362 l 0,0 c -11.8212,10.96624 -5.74828,5.2499 -18.20093,17.1679 -4.78201,4.48143 -14.83485,13.82986 -19.58916,18.56178 -2.52981,2.5179 -4.96,5.13409 -7.41537,7.72464 -1.54701,1.63217 -2.60754,3.88404 -4.59138,4.94311 -10.94109,5.84091 -22.35013,10.78877 -33.80122,15.55282 -0.64162,0.26694 0.61164,-1.24803 0.91746,-1.87204 7.62056,-13.14469 14.39631,-26.78252 22.19203,-39.83361 12.95201,-23.27881 27.0099,-45.99386 44.44739,-66.23596 7.52003,-9.27645 15.17546,-18.44322 22.63924,-27.76499 21.65272,-27.04279 41.86008,-55.19825 61.48195,-83.73853 27.83221,-41.15423 53.80975,-83.59902 83.53074,-123.44249 15.51342,-19.75764 12.5148,-18.35167 44.79409,-36.06873 1.49829,-0.82236 3.94263,0.72142 4.57872,2.30779 0.66664,1.66259 -0.87271,3.49255 -1.59584,5.13136 -1.41863,3.21502 -3.19852,6.25821 -4.80819,9.38197 -2.22797,4.32365 -4.46979,8.64014 -6.70468,12.96021 -7.96913,13.97598 -11.4118,20.51338 -20.61644,34.36655 -19.00149,28.5976 -40.90637,55.434 -66.80574,78.07701 -18.73586,15.53212 -36.54988,29.97779 -57.53228,42.4918 -0.45011,0.26845 -42.60177,26.54408 -57.43423,31.28115 -2.92273,0.93343 -6.07986,0.83062 -9.11979,1.24593 -1.44708,-1.19566 -3.65631,-1.83927 -4.34123,-3.58699 -1.27019,-3.24112 3.37881,-13.3049 3.99035,-14.75779 6.1828,-14.68898 13.81107,-28.7111 21.06711,-42.87907 25.81582,-48.10263 52.98863,-95.51914 84.73344,-140.01928 11.41343,-15.45168 16.27446,-22.92479 28.81954,-36.75946 3.70996,-4.09132 7.18442,-8.5569 11.71194,-11.71986 12.11099,-8.4608 24.97065,-15.83161 37.91602,-22.95051 2.12706,-1.16971 4.6338,-1.83261 7.06077,-1.78306 1.73784,0.0355 3.20349,1.3502 4.80523,2.02529 0.69212,1.28242 1.68179,2.44441 2.07636,3.84724 0.78032,2.7743 0.26162,8.18713 0.11157,10.84102 -0.3704,6.5512 -0.75824,13.10693 -1.49035,19.62971 -1.47935,11.15636 -4.24772,21.96271 -9.26722,32.11162 -5.54884,11.39364 -11.33414,22.70378 -17.83904,33.59027 -11.84202,19.81862 -25.51921,38.45216 -38.74849,57.34285 -39.86303,54.51592 -81.74468,107.81505 -129.13093,156.05552 -19.69592,18.71938 -18.79282,20.27424 -52.50684,33.26207 -1.55934,0.60071 -2.80991,-2.52188 -2.74956,-4.19184 0.11246,-3.1121 2.04924,-5.88419 3.21798,-8.77069 4.44193,-10.97054 9.68363,-21.60804 13.78984,-32.71989 24.59406,-59.30929 47.19486,-119.44583 73.35956,-178.09479 6.06335,-13.53938 12.4443,-26.94137 18.17562,-40.62461 7.50886,-17.92702 13.54451,-36.4633 19.53948,-54.93241 7.36779,-24.4871 16.32479,-48.47279 22.89397,-73.18962 6.13919,-13.02152 1.32535,-4.24863 30.87567,-19.9956 1.10661,-0.5897 -1.86667,1.70494 -2.5858,2.73217 -5.51573,7.87881 -9.12496,17.08647 -14.54565,25.02226 -27.76841,48.0358 -54.05837,96.89073 -78.18867,146.87286 -18.85154,39.87859 -37.46678,79.70264 -52.69744,121.14836 -7.07787,19.26031 -11.64859,32.98688 -15.74801,52.36354 -0.66392,3.13813 -0.81673,6.36299 -1.22509,9.54448 0,0 -31.05258,15.82208 -31.05258,15.82208 z"
       inkscape:connector-curvature="0" />
    <path
       style="fill:#00ff00;fill-opacity:1"
       id="path3432"
       d="m 861.42948,628.65364 c 34.30582,49.693 62.82694,103.05073 90.90054,156.41622 25.01248,48.76329 48.66958,98.23723 77.12668,145.14109 16.3864,27.00855 19.9076,31.2438 37.3609,56.22734 12.8532,16.86301 26.1704,33.49471 40.7698,48.90181 2.5084,2.6472 5.1631,5.1539 7.8334,7.6378 4.2263,3.9312 2.5296,4.0607 5.1316,3.5346 -10.8213,4.9972 -20.774,12.6643 -32.464,14.9917 -3.0643,0.6101 -3.845,-4.9259 -5.7826,-7.377 -4.0146,-5.0787 -14.015,-17.528 -17.5295,-22.2387 -7.5205,-10.0804 -14.4929,-20.536 -21.5864,-30.9153 -34.3971,-55.02419 -72.34578,-107.66309 -110.96602,-159.76611 -35.67213,-48.10324 -72.29584,-95.48681 -108.2865,-143.34916 -8.29507,-11.35216 -16.77831,-22.57251 -25.6407,-33.4895 -4.03571,-4.97131 -7.99667,-9.63372 -12.83545,-13.81193 9.57292,-4.66573 18.48985,-11.03422 28.71876,-13.9972 2.21297,-0.64102 -2.12323,4.15797 -2.56053,6.42003 -1.025,5.30209 -1.41669,10.71411 -1.79327,16.10122 -2.05378,29.37957 -0.74995,58.5526 0.66314,87.91958 2.95319,53.55122 10.53058,106.66934 19.35118,159.52054 3.19653,15.97445 5.64195,32.18628 10.84198,47.67174 3.78851,8.55506 21.65035,0.36166 -29.43931,16.11985 -1.77984,0.54897 -0.14559,-3.72642 -0.36923,-5.57553 -0.76402,-6.31735 -4.12373,-26.87418 -4.76691,-30.90935 -6.40989,-37.60914 -13.54766,-75.09311 -22.54751,-112.17733 -4.17016,-17.18328 -8.84637,-34.21586 -13.43169,-51.28961 -4.70047,-16.89027 -9.07846,-33.87944 -14.88883,-50.43453 -0.97879,-2.7888 -3.86341,-12.13441 -7.01571,-14.84963 -0.88655,-0.76364 -2.31222,-0.36062 -3.46834,-0.54093 8.34038,-4.17834 16.05335,-9.96613 25.02114,-12.53501 3.3685,-0.96493 -5.09867,4.82575 -7.38329,7.48252 -3.23623,3.76339 -6.18816,7.76452 -9.15185,11.74608 -10.63458,14.287 -20.42495,29.17673 -30.19886,44.05508 -13.77306,21.14328 -26.28108,43.15643 -35.86962,66.52214 -3.41008,8.29186 -5.82581,16.61071 -7.11806,25.45576 -2.49806,18.07158 -4.46931,36.19852 -5.93953,54.38103 0.40258,3.84012 0.0787,6.81039 2.701,9.97074 5.21402,6.28385 22.09243,9.12431 29.57546,10.92055 9.44413,1.70419 18.94155,3.80477 28.54935,4.41509 2.87238,0.18246 5.79819,0.56264 8.6342,0.0718 3.17032,-0.54864 11.70804,-5.06425 9.12551,-3.14527 -4.94924,3.67758 -10.93483,5.70155 -16.40225,8.55233 5.34118,-4.44462 10.96147,-8.57379 16.02355,-13.33386 14.24286,-13.39313 29.89615,-31.32329 42.2517,-46.14336 21.65501,-25.97446 41.50589,-53.1305 60.91583,-80.79053 11.70837,-17.34552 22.993,-35.00103 32.81915,-53.49172 3.71348,-6.98797 6.77579,-13.49248 8.6858,-21.1173 -0.0606,-0.56149 0.007,-2.21659 -0.18174,-1.68446 -3.65005,10.26961 20.08174,-9.24925 25.39156,-9.69211 4.23287,-0.35305 -4.91584,6.96051 -6.87265,10.73049 -8.64226,16.65012 -10.38734,24.82499 -16.52425,43.44042 -9.33921,34.76161 -17.82918,70.21277 -20.76682,106.20224 -1.53077,18.75368 -0.711,23.38839 0.25335,41.53503 2.90185,20.58819 6.30516,42.76508 18.54086,60.1965 0.70381,0.6445 1.15717,1.9214 2.11142,1.93352 0.67479,0.009 1.32057,-2.1746 0.70512,-1.89776 -9.70773,4.36678 -18.11624,12.06891 -28.50217,14.40156 -2.70252,0.60697 0.99558,-5.47152 1.06986,-8.24036 0.26526,-9.8874 -1.36946,-23.36522 -2.24907,-32.76785 -6.23461,-46.43252 -13.36831,-92.70683 -17.82419,-139.35858 -2.77914,-26.99221 -2.89399,-54.17252 -5.00372,-81.20361 -0.1898,-1.67766 -0.3796,-3.35533 -0.5694,-5.033 0,0 30.54629,-15.88267 30.54629,-15.88267 l 0,0 c 0.0947,1.76489 0.18932,3.52979 0.28397,5.29468 0.79275,27.41725 0.1345,54.89844 2.72137,82.25407 1.88164,22.72791 4.07365,45.3585 7.16801,67.96054 3.22049,23.52334 3.91217,25.84608 7.59923,49.10062 1.16303,7.33536 2.26277,14.68061 3.39415,22.02091 1.09162,7.70402 3.56639,23.83859 4.17846,32.43082 0.20481,2.87509 2.11695,6.62643 0.0613,8.64691 -8.93999,8.78703 -20.10765,15.03538 -30.80472,21.57052 -0.79296,0.48444 -1.79111,-0.62688 -2.50676,-1.21959 -0.87375,-0.72364 -1.43385,-1.75853 -2.15077,-2.63779 -11.14206,-18.97889 -14.64173,-41.44838 -17.06874,-62.98964 -0.67546,-18.28565 -1.42298,-23.60028 0.30604,-42.42462 3.31874,-36.13219 12.19972,-71.62867 20.74043,-106.77682 5.28185,-18.354 6.86829,-26.35185 14.03381,-43.0839 8.53587,-19.93192 12.97617,-18.6207 39.69559,-32.90609 1.08497,-0.58007 2.31534,1.14275 2.97953,2.17837 0.55125,0.85953 0.2453,2.02743 0.36795,3.04114 -2.2892,8.31895 -5.82012,15.21433 -10.13738,22.75315 -10.80193,18.86233 -22.83067,36.97794 -35.17731,54.85658 -19.70508,27.60667 -39.74925,54.86731 -61.16409,81.18963 -10.74278,13.20462 -27.57358,33.21855 -39.93964,45.68114 -4.69321,4.72984 -9.89044,8.93137 -14.83566,13.39706 -13.58549,7.93716 -26.7848,16.57569 -40.75646,23.81149 -12.09103,6.26183 -34.50448,-0.79681 -47.293,-2.78565 -9.70714,-2.32986 -25.33918,-4.50713 -31.90452,-13.02245 -3.11871,-4.04501 -2.75587,-6.92445 -3.3013,-11.73858 1.89121,-18.12287 4.27337,-36.19653 5.80257,-54.35656 0.0931,-1.49681 0.3802,-7.86461 0.82268,-10.09249 1.1337,-5.70815 4.67168,-10.73942 6.06311,-16.36661 10.24876,-23.73633 23.3132,-46.11387 37.301,-67.82568 9.6944,-14.77902 19.43738,-29.52229 29.57884,-44.00077 2.74704,-3.92181 5.51097,-7.83282 8.35607,-11.68408 2.04347,-2.76614 3.42017,-6.2961 6.30723,-8.16486 11.31863,-7.3264 23.79731,-12.6822 35.69597,-19.0233 1.42005,0.89711 3.18183,1.40348 4.26016,2.69133 3.03742,3.62762 5.1904,12.29714 6.30876,16.10911 4.99543,17.02723 8.73393,34.36101 13.16653,51.53768 6.67397,27.05967 13.36105,54.10975 19.45023,81.30914 8.78048,39.22096 4.10501,19.50434 12.25587,57.61913 1.72684,8.07496 3.5647,16.12578 5.34704,24.18867 5.3192,23.87494 2.37044,11.07932 6.85613,29.92581 0.49329,2.07255 3.08165,4.82752 1.46939,6.22014 -15.3723,13.27801 -27.75709,30.57376 -32.47263,15.94496 -4.24798,-16.19668 -6.06039,-32.86688 -8.65417,-49.38046 -7.1378,-53.48999 -13.75598,-107.07448 -17.22819,-160.95184 -1.86169,-28.96532 -3.41995,-57.85198 -3.51222,-86.8872 -0.0168,-5.28887 0.0777,-10.57877 0.25726,-15.86462 0.0988,-2.9083 -1.75173,-6.96632 0.57737,-8.71082 9.92817,-7.43622 22.18714,-11.09932 33.28072,-16.64898 14.11892,14.78643 24.07248,33.0505 36.2593,49.33838 34.3506,48.91332 69.85244,97.01199 105.65291,144.87055 38.84928,52.06962 77.45864,104.32055 113.75794,158.2179 10.3229,14.4189 20.5637,28.68999 32.0682,42.19829 2.7883,3.274 5.6144,6.5167 8.4995,9.7057 2.1457,2.3716 8.4272,4.3552 6.5902,6.9731 -6.6195,9.4334 -17.8698,14.5564 -26.8047,21.8346 -1.5611,-3.3291 -9.7978,-11.8361 -11.1557,-13.4787 -13.5122,-16.3462 -26.3663,-33.2526 -38.5584,-50.6032 -5.8275,-8.79806 -11.8285,-17.48353 -17.4825,-26.39401 -12.45,-19.6209 -27.30621,-44.89965 -38.40963,-65.08991 -16.14634,-29.36022 -22.87205,-43.78766 -38.09027,-73.74074 -6.33028,-12.4595 -12.73916,-24.87891 -19.10874,-37.31836 -28.30656,-52.89175 -56.88754,-106.68231 -96.27844,-152.34013 0,0 29.59197,-17.94086 29.59197,-17.94086 z"
       inkscape:connector-curvature="0" />
    <path
       style="fill:#00ff00;fill-opacity:1"
       id="path3434"
       d="m 926.14532,704.14819 c 1.94339,-3.44047 3.71405,-6.98441 5.83017,-10.32142 21.56487,-34.00671 48.08242,-65.07817 75.48211,-94.45846 8.1912,-8.78322 16.7016,-17.26314 25.0524,-25.89471 19.8567,-19.88163 40.228,-39.26114 61.1655,-58.00307 1.1579,-1.03648 19.7102,-17.46123 23.0725,-19.593 11.5816,-7.34295 23.6868,-13.82534 35.5302,-20.738 1.4338,0.1635 3.4231,-0.65455 4.3015,0.4905 3.9379,5.13347 -1.2003,12.85824 -3.46,16.53053 -3.9991,6.49924 -24.2584,32.94741 -26.5033,35.97149 -6.8887,9.27979 -13.6794,18.63188 -20.5191,27.94782 -42.9334,59.4807 -84.6161,119.91233 -123.62387,182.04797 -9.76765,15.48619 -18.56477,31.54213 -27.54407,47.48707 -1.61693,2.87125 -3.36231,5.67247 -4.87673,8.59907 -0.63055,1.21852 -0.32169,3.19664 -1.54679,3.81429 -9.23614,4.65646 -19.21493,7.66436 -28.8224,11.49655 3.55044,-3.2041 7.2606,-6.23961 10.65131,-9.61228 11.25236,-11.19253 32.96561,-35.12824 42.42866,-45.57872 29.02519,-32.05381 57.43419,-64.64296 85.91999,-97.17456 31.578,-35.05529 60.2617,-72.74653 92.7636,-106.97183 10.3755,-9.25573 16.0609,-15.15541 35.7599,-16.3276 4.2288,-0.25164 -3.7851,7.59676 -6.0514,11.17598 -4.518,7.13542 -9.5073,13.96127 -14.2778,20.93045 -29.9758,43.7921 -9.8605,13.98436 -42.1451,62.316 -32.7056,48.91982 -64.0456,98.71767 -94.614,148.99316 -5.1265,8.6501 -9.986,17.44588 -14.6259,26.36376 0,0 -31.01999,13.92397 -31.01999,13.92397 l 0,0 c 5.11696,-9.23409 10.51237,-18.30021 16.09809,-27.26053 32.525,-50.41318 65.4686,-100.54971 98.3737,-150.71544 13.1563,-20.40188 26.5434,-40.65566 39.5435,-61.15736 4.1642,-6.56699 8.0564,-13.30348 12.2029,-19.88163 1.7777,-2.82024 2.8036,-6.44364 5.5668,-8.30883 9.7223,-6.56271 20.5889,-11.2603 31.1092,-16.44816 1.838,-0.90635 -3.3348,2.38272 -5.0022,3.57408 -17.8838,17.32767 -34.0778,36.20413 -50.5585,54.8516 -7.338,8.30268 -14.7152,16.57068 -22.0284,24.89516 -8.5507,9.73312 -17.0421,19.51823 -25.5631,29.27735 -44.1309,50.12022 -87.72215,100.72107 -132.19268,150.53867 -11.64362,5.14554 -22.8546,11.40993 -34.93086,15.43663 -1.61479,0.53843 1.44255,-3.08911 2.30363,-4.55745 1.76427,-3.0085 3.74229,-5.88681 5.56492,-8.86031 9.93182,-16.2031 19.24239,-32.78573 29.77627,-48.61829 40.13537,-61.78961 82.49622,-122.0968 124.51342,-182.61261 6.4094,-9.13845 12.8046,-18.28699 19.2284,-27.41536 8.0396,-11.42436 16.5842,-22.51303 24.0649,-34.31086 1.6421,-2.58978 2.784,-5.46955 4.3486,-8.10689 0.4129,-0.69605 2.0256,-1.19384 1.563,-1.85792 -0.4944,-0.70971 -1.7062,0.28511 -2.5593,0.42766 7.1666,-4.28577 13.8225,-9.57315 21.5,-12.85729 4.1334,-1.76815 -7.1894,5.40318 -10.6845,8.2308 -4.7865,3.87223 -9.4948,7.8415 -14.1551,11.86459 -21.7913,18.81155 -42.906,38.41583 -63.3517,58.6797 -8.3837,8.60483 -16.9471,17.0382 -25.1512,25.8145 -26.4531,28.29819 -51.9735,58.4727 -71.64612,91.99173 -1.78049,3.03368 -3.21884,6.25559 -4.82826,9.38339 0,0 -31.4328,14.58811 -31.4328,14.58811 z"
       inkscape:connector-curvature="0" />
  </g>
</svg>
