<?xml version="1.0" encoding="UTF-8" standalone="no"?>
<!-- Created with Inkscape (http://www.inkscape.org/) -->

<svg
   xmlns:dc="http://purl.org/dc/elements/1.1/"
   xmlns:cc="http://creativecommons.org/ns#"
   xmlns:rdf="http://www.w3.org/1999/02/22-rdf-syntax-ns#"
   xmlns:svg="http://www.w3.org/2000/svg"
   xmlns="http://www.w3.org/2000/svg"
   xmlns:sodipodi="http://sodipodi.sourceforge.net/DTD/sodipodi-0.dtd"
   xmlns:inkscape="http://www.inkscape.org/namespaces/inkscape"
   width="1920"
   height="1080"
   id="svg3360"
   version="1.1"
   inkscape:version="0.91 r13725"
   viewBox="0 0 1920 1080"
   sodipodi:docname="drawing.svg">
  <defs
     id="defs3362">
    <inkscape:perspective
       sodipodi:type="inkscape:persp3d"
       inkscape:vp_x="0 : 540 : 1"
       inkscape:vp_y="0 : 1000 : 0"
       inkscape:vp_z="1920 : 540 : 1"
       inkscape:persp3d-origin="960 : 360 : 1"
       id="perspective3368" />
  </defs>
  <sodipodi:namedview
     id="base"
     pagecolor="#ffffff"
     bordercolor="#666666"
     borderopacity="1.0"
     inkscape:pageopacity="0.0"
     inkscape:pageshadow="2"
     inkscape:zoom="0.42426407"
     inkscape:cx="683.64208"
     inkscape:cy="540"
     inkscape:document-units="px"
     inkscape:current-layer="layer2"
     showgrid="false"
     inkscape:window-width="1680"
     inkscape:window-height="1001"
     inkscape:window-x="0"
     inkscape:window-y="0"
     inkscape:window-maximized="1" />
  <metadata
     id="metadata3365">
    <rdf:RDF>
      <cc:Work
         rdf:about="">
        <dc:format>image/svg+xml</dc:format>
        <dc:type
           rdf:resource="http://purl.org/dc/dcmitype/StillImage" />
        <dc:title></dc:title>
      </cc:Work>
    </rdf:RDF>
  </metadata>
  <g
     id="layer1"
     inkscape:label="Layer 1"
     inkscape:groupmode="layer"
     sodipodi:insensitive="true">
    <rect
       style="fill:#ffffff;fill-opacity:1"
       id="rect3384"
       width="1928.0444"
       height="1077.1593"
       x="0"
       y="2.8406696" />
  </g>
  <g
     inkscape:groupmode="layer"
     id="layer2"
     inkscape:label="Layer 2"
     style="display:inline">
    <path
       style="fill:#00ff00;fill-opacity:1"
       id="path3420"
       d="m -14.9105,753.23477 c 26.648111,-24.30729 51.502699,-50.52573 76.591368,-76.42243 17.20947,-17.08782 34.542328,-34.045 51.571412,-51.31403 6.66952,-7.22422 14.56884,-13.07073 21.97752,-19.46852 3.35836,-3.35364 7.35776,-5.87881 11.2851,-8.48664 11.04798,-7.74148 23.83984,-13.8236 35.01774,-20.53856 9.29386,-5.58315 -18.77228,10.85348 -28.19456,16.21707 -0.98155,0.55874 1.23005,-0.83793 3.49648,-2.27676 5.55355,-3.57659 10.36707,-8.1257 15.63863,-12.06582 0,0 32.40746,-12.63558 32.40746,-12.63558 l 0,0 c -5.70984,3.18457 -10.11266,8.23071 -15.47777,11.96118 -10.99958,7.66945 -25.07847,14.51084 -35.08947,20.76554 -9.17497,5.73236 18.6864,-10.908 28.06173,-16.30646 1.11073,-0.63957 -4.08414,2.69519 -3.29142,1.98783 -3.77264,2.97573 -8.21151,4.9733 -11.74104,8.26936 -7.29814,6.8665 -15.85265,12.30109 -22.78537,19.60067 -17.62942,17.57339 -35.59514,34.79219 -53.504665,52.07809 -24.64028,25.19655 -48.898048,50.79414 -74.089618,75.43262 0,0 -31.873527,13.20244 -31.873527,13.20244 z"
       inkscape:connector-curvature="0" />
  </g>
</svg>
