<?xml version="1.0" encoding="UTF-8" standalone="no"?>
<!-- Created with Inkscape (http://www.inkscape.org/) -->

<svg
   xmlns:dc="http://purl.org/dc/elements/1.1/"
   xmlns:cc="http://creativecommons.org/ns#"
   xmlns:rdf="http://www.w3.org/1999/02/22-rdf-syntax-ns#"
   xmlns:svg="http://www.w3.org/2000/svg"
   xmlns="http://www.w3.org/2000/svg"
   xmlns:sodipodi="http://sodipodi.sourceforge.net/DTD/sodipodi-0.dtd"
   xmlns:inkscape="http://www.inkscape.org/namespaces/inkscape"
   width="297mm"
   height="210mm"
   viewBox="0 0 297 210"
   id="svg2"
   version="1.1"
   inkscape:version="0.91+devel r"
   sodipodi:docname="NEW.svg">
  <defs
     id="defs4" />
  <sodipodi:namedview
     id="base"
     pagecolor="#ffffff"
     bordercolor="#666666"
     borderopacity="1.0"
     inkscape:pageopacity="0.0"
     inkscape:pageshadow="2"
     inkscape:zoom="0.35"
     inkscape:cx="400"
     inkscape:cy="560"
     inkscape:document-units="mm"
     inkscape:current-layer="layer2"
     showgrid="false"
     inkscape:window-width="1366"
     inkscape:window-height="744"
     inkscape:window-x="0"
     inkscape:window-y="24"
     inkscape:window-maximized="1" />
  <metadata
     id="metadata7">
    <rdf:RDF>
      <cc:Work
         rdf:about="">
        <dc:format>image/svg+xml</dc:format>
        <dc:type
           rdf:resource="http://purl.org/dc/dcmitype/StillImage" />
        <dc:title></dc:title>
      </cc:Work>
    </rdf:RDF>
  </metadata>
  <g
     inkscape:label="Layer 1"
     inkscape:groupmode="layer"
     id="layer1"
     transform="translate(0,-87)"
     sodipodi:insensitive="true">
    <rect
       style="fill:#00aad4;stroke-width:0.26458332"
       id="rect3336"
       width="337.15479"
       height="250.97618"
       x="-8.3154764"
       y="77.773811" />
  </g>
  <g
     inkscape:groupmode="layer"
     id="layer2"
     inkscape:label="Layer 2">
    <path
       style="fill:#005522;stroke-width:0.26458332"
       id="path3358"
       d="m -3.1875645,159.41161 c 0.3784521,-0.14738 0.7651413,-0.27515 1.1353557,-0.44215 0.9073996,-0.40932 2.64096137,-1.33756 3.4483207,-1.79087 0.6473447,-0.36347 2.5694432,-1.48872 1.9235022,-1.12277 -7.2166276,4.08855 -9.9359552,5.7836 -5.3813369,2.99112 3.4466325,-1.96373 6.6497837,-4.28958 9.6885421,-6.82993 2.6133567,-2.04504 5.2901247,-3.97221 7.5702357,-6.39471 1.925446,-2.18888 3.668405,-4.52978 5.487262,-6.80713 1.760309,-2.28371 3.326831,-4.70583 5.044599,-7.02039 1.28555,-1.93212 2.505253,-3.89646 3.935688,-5.7273 1.524976,-1.72942 2.849531,-3.61444 4.112223,-5.53941 1.215453,-1.99099 2.792174,-3.68086 4.592622,-5.14667 2.170797,-1.7774 3.915095,-4.01681 5.696783,-6.16887 1.74335,-2.10923 3.232213,-4.40292 4.708223,-6.70128 3.425852,-5.245593 5.018945,-5.620029 12.658728,-9.343497 0.303194,-0.14777 0.559609,0.376677 0.839414,0.565015 1.564685,1.925664 2.141596,4.510876 2.642352,6.898842 0.728606,2.65721 1.248058,5.36212 1.912627,8.03466 0.493694,2.48753 1.312749,4.88905 1.95838,7.33668 0.651478,3.30147 1.280726,6.60768 2.02224,9.89139 0.677031,2.85102 1.796581,5.55657 2.441887,8.41625 0.421134,1.85844 0.866365,3.67506 1.672346,5.40482 0.70757,1.76201 1.631141,3.4215 2.408277,5.15049 0.80994,2.14655 1.73272,4.24444 2.663979,6.34046 0.85058,2.3027 1.834324,4.56397 2.868623,6.79041 1.058328,2.53583 2.411132,4.92954 3.592274,7.40605 0.769541,2.47811 1.801551,4.85734 2.726354,7.27698 0.922827,2.04963 1.789716,4.13286 2.834103,6.12537 0.762455,1.26528 0.320426,0.72192 1.287018,1.6611 0,0 -9.501841,5.79032 -9.501841,5.79032 l 0,0 c -1.067514,-1.19524 -0.592426,-0.54976 -1.421712,-1.93907 -1.06817,-2.03031 -1.995977,-4.13592 -2.911395,-6.23768 -0.896814,-2.40126 -1.88308,-4.76965 -2.647943,-7.21975 -1.160285,-2.48639 -2.526604,-4.87247 -3.606895,-7.39764 -1.063971,-2.22072 -2.018281,-4.51277 -2.912782,-6.80446 -0.897218,-2.10634 -1.825127,-4.19913 -2.700686,-6.3149 -0.743152,-1.7307 -1.681345,-3.37174 -2.371805,-5.12755 -0.892717,-1.80334 -1.363363,-3.69042 -1.76766,-5.65783 -0.563337,-2.88168 -1.623189,-5.61231 -2.342348,-8.45453 -0.722604,-3.26726 -1.405557,-6.54229 -2.048396,-9.82447 -0.667343,-2.44772 -1.53714,-4.84394 -2.012487,-7.34158 -0.620332,-2.69784 -1.100252,-5.42839 -1.927238,-8.07512 -0.330521,-1.75824 -0.838611,-4.57897 -2.150092,-5.84287 -3.352382,1.76142 -2.238169,1.18283 8.729514,-5.200392 0.244171,-0.142111 -0.482007,0.302913 -0.684112,0.500314 -0.816012,0.797028 -1.386578,1.841264 -2.086872,2.73041 -1.526129,2.325348 -2.984433,4.697158 -4.750408,6.855198 -1.766628,2.16016 -3.477794,4.39498 -5.479576,6.34238 -1.829634,1.36671 -3.551831,2.84555 -4.757963,4.82213 -1.272106,1.92962 -2.492227,3.91814 -4.052842,5.63287 -1.49678,1.78728 -2.823464,3.69196 -3.987372,5.71411 -1.783976,2.28338 -3.366881,4.70717 -5.07025,7.04996 -1.793496,2.31769 -3.622791,4.61297 -5.471403,6.88541 -0.541453,0.6181 -1.517048,1.76524 -2.123609,2.32397 -1.683566,1.55083 -3.655553,2.77065 -5.425103,4.21463 -3.027134,2.62549 -6.234518,5.0454 -9.7262246,7.02668 -6.5151675,4.01124 -13.0420388,8.17184 -20.0901454,11.19094 0,0 8.8090245,-6.89614 8.8090245,-6.89614 z"
       inkscape:connector-curvature="0" />
    <path
       style="fill:#005522;stroke-width:0.26458332"
       id="path3360"
       d="m 79.341667,163.2217 c 4.221657,-2.89871 8.575156,-5.5924 12.772458,-8.52767 3.973502,-2.90796 7.784582,-6.05377 11.214565,-9.58993 3.1689,-3.98733 6.61598,-7.72103 10.14554,-11.38877 3.65572,-3.91883 7.64006,-7.49672 11.7567,-10.92044 2.77222,-2.20642 5.47344,-4.49565 8.08293,-6.89182 2.20738,-1.89855 4.36748,-3.83038 6.37235,-5.94272 1.11984,-1.20159 0.5661,-0.60654 1.66128,-1.78509 0,0 10.24358,-4.2845 10.24358,-4.2845 l 0,0 c -1.10948,1.18376 -0.5494,0.58434 -1.68013,1.79837 -2.00789,2.14872 -4.09064,4.19867 -6.39689,6.0327 -2.61719,2.46041 -5.34363,4.79497 -8.17613,7.00547 -4.19186,3.3592 -8.23836,6.90664 -11.9029,10.84202 -3.51533,3.6243 -7.00254,7.28099 -10.03884,11.32568 -3.35378,3.71121 -7.31177,6.81866 -11.27409,9.85317 -4.062005,2.88569 -8.289348,5.51648 -12.37638,8.36398 0,0 -10.404043,4.10955 -10.404043,4.10955 z"
       inkscape:connector-curvature="0" />
    <path
       style="fill:#005522;stroke-width:0.26458332"
       id="path3362"
       d="m 153.91091,102.34841 c -0.13586,4.0761 -0.22862,8.15764 0.003,12.23037 0.62594,6.42654 3.69779,12.15082 6.64913,17.76816 2.89952,5.64978 6.2233,11.06282 9.42193,16.54416 2.86127,5.15558 6.42482,9.84782 10.26835,14.29987 2.72619,2.64773 4.75888,5.84997 7.07914,8.83422 2.7658,3.65138 6.34015,6.53144 10.31677,8.76024 2.17707,0.98484 4.80481,2.25123 7.09062,0.96182 -9.22274,5.17985 -11.69934,7.30797 -8.59464,4.70041 0,0 10.28898,-4.44512 10.28898,-4.44512 l 0,0 c -2.04579,4.22478 -0.11353,0.56282 -10.51333,6.61526 -2.64793,0.4498 -5.17061,-0.62157 -7.46242,-1.87447 -3.97633,-2.44894 -7.60078,-5.44041 -10.51146,-9.11545 -2.36023,-2.93247 -4.43366,-6.08117 -7.00617,-8.8406 -3.75375,-4.59078 -7.30885,-9.35596 -10.2277,-14.53135 -3.26121,-5.46646 -6.51091,-10.94402 -9.41079,-16.61397 -2.98672,-5.74293 -6.18924,-11.55018 -7.0093,-18.07483 -0.34305,-4.0387 -0.17753,-8.08706 -0.35869,-12.1354 0,0 9.97658,-5.08332 9.97658,-5.08332 z"
       inkscape:connector-curvature="0" />
    <path
       style="fill:#005522;stroke-width:0.26458332"
       id="path3364"
       d="m 176.06969,150.36165 c 3.01022,-0.7869 5.8203,-2.18313 8.57014,-3.6095 0.96584,-0.50098 3.81166,-2.09887 2.87716,-1.5416 -2.04145,1.2174 -4.13307,2.34861 -6.19961,3.52291 6.41929,-3.90704 11.94884,-9.02483 17.38903,-14.15824 5.61131,-5.46541 11.17966,-10.97223 16.83145,-16.39614 2.98573,-2.99116 6.24556,-5.72848 8.9877,-8.95372 0.96336,-1.24967 0.49783,-0.6331 1.39811,-1.84855 0,0 10.20845,-4.40556 10.20845,-4.40556 l 0,0 c -0.92736,1.24825 -0.45079,0.60735 -1.42981,1.92265 -2.72348,3.41527 -6.18709,6.14373 -9.27164,9.21703 -5.74385,5.40465 -11.38598,10.91063 -16.98854,16.46151 -5.3961,5.14879 -10.83142,10.3326 -17.17113,14.32742 -7.7531,4.49668 -15.41151,9.55298 -24.02256,12.31499 0,0 8.82125,-6.8532 8.82125,-6.8532 z"
       inkscape:connector-curvature="0" />
    <path
       style="fill:#005522;stroke-width:0.26458332"
       id="path3366"
       d="m 237.8137,104.71073 c -0.39468,4.10003 0.26265,8.11501 1.0482,12.12179 1.21341,5.25601 3.43541,10.19656 5.3265,15.22629 2.25512,5.51589 4.8384,10.89124 7.48961,16.22569 2.58115,4.85319 5.22802,9.67407 8.06602,14.38237 2.39413,3.86085 5.0598,7.53339 7.73972,11.19636 2.12322,3.12373 4.62491,5.93138 7.32028,8.56729 2.89832,2.90106 6.26197,5.04036 10.14317,6.32009 1.62348,0.39437 0.83375,0.28486 2.36363,0.36652 0,0 -9.07132,6.42419 -9.07132,6.42419 l 0,0 c -1.60076,-0.29834 -0.78521,-0.0986 -2.44197,-0.61803 -3.88705,-1.53957 -7.28454,-3.85562 -10.27348,-6.78955 -2.75627,-2.67717 -5.40515,-5.44804 -7.49811,-8.69121 -2.58647,-3.75771 -5.26835,-7.45271 -7.63763,-11.35609 -2.81084,-4.75718 -5.52104,-9.57523 -8.08621,-14.46958 -2.63957,-5.37906 -5.18209,-10.81008 -7.51235,-16.33073 -1.94761,-5.0645 -4.20872,-10.03772 -5.5241,-15.32199 -0.82665,-4.0201 -1.49922,-8.05768 -1.4127,-12.17817 0,0 9.96074,-5.07524 9.96074,-5.07524 z"
       inkscape:connector-curvature="0" />
  </g>
</svg>
