<?xml version="1.0" encoding="UTF-8" standalone="no"?>
<!-- Created with Inkscape (http://www.inkscape.org/) -->

<svg
   xmlns:dc="http://purl.org/dc/elements/1.1/"
   xmlns:cc="http://creativecommons.org/ns#"
   xmlns:rdf="http://www.w3.org/1999/02/22-rdf-syntax-ns#"
   xmlns:svg="http://www.w3.org/2000/svg"
   xmlns="http://www.w3.org/2000/svg"
   xmlns:sodipodi="http://sodipodi.sourceforge.net/DTD/sodipodi-0.dtd"
   xmlns:inkscape="http://www.inkscape.org/namespaces/inkscape"
   width="297mm"
   height="210mm"
   viewBox="0 0 297 210"
   id="svg2"
   version="1.1"
   inkscape:version="0.91+devel r"
   sodipodi:docname="NEW.svg">
  <defs
     id="defs4" />
  <sodipodi:namedview
     id="base"
     pagecolor="#ffffff"
     bordercolor="#666666"
     borderopacity="1.0"
     inkscape:pageopacity="0.0"
     inkscape:pageshadow="2"
     inkscape:zoom="0.35"
     inkscape:cx="502.85714"
     inkscape:cy="828.57143"
     inkscape:document-units="mm"
     inkscape:current-layer="layer2"
     showgrid="false"
     inkscape:window-width="1366"
     inkscape:window-height="744"
     inkscape:window-x="0"
     inkscape:window-y="24"
     inkscape:window-maximized="1" />
  <metadata
     id="metadata7">
    <rdf:RDF>
      <cc:Work
         rdf:about="">
        <dc:format>image/svg+xml</dc:format>
        <dc:type
           rdf:resource="http://purl.org/dc/dcmitype/StillImage" />
        <dc:title></dc:title>
      </cc:Work>
    </rdf:RDF>
  </metadata>
  <g
     inkscape:label="Layer 1"
     inkscape:groupmode="layer"
     id="layer1"
     transform="translate(0,-87)"
     sodipodi:insensitive="true">
    <rect
       style="fill:#00aad4;stroke-width:0.26458332"
       id="rect3336"
       width="337.15479"
       height="250.97618"
       x="-8.3154764"
       y="77.773811" />
  </g>
  <g
     inkscape:groupmode="layer"
     id="layer2"
     inkscape:label="Layer 2">
    <ellipse
       style="fill:#ff0000;stroke-width:0.26458332"
       id="path3456"
       cx="163.05856"
       cy="137.65552"
       rx="24.190477"
       ry="23.434523" />
    <path
       style="fill:#005522;stroke-width:0.26458332"
       id="path3358"
       d="m -3.1875645,159.41161 c 0.3784521,-0.14738 0.7651413,-0.27515 1.1353557,-0.44215 0.9073996,-0.40932 2.64096137,-1.33756 3.4483207,-1.79087 0.6473447,-0.36347 2.5694432,-1.48872 1.9235022,-1.12277 -7.2166276,4.08855 -9.9359552,5.7836 -5.3813369,2.99112 3.4466325,-1.96373 6.6497837,-4.28958 9.6885421,-6.82993 2.6133567,-2.04504 5.2901247,-3.97221 7.5702357,-6.39471 1.925446,-2.18888 3.668405,-4.52978 5.487262,-6.80713 1.760309,-2.28371 3.326831,-4.70583 5.044599,-7.02039 1.28555,-1.93212 2.505253,-3.89646 3.935688,-5.7273 1.524976,-1.72942 2.849531,-3.61444 4.112223,-5.53941 1.215453,-1.99099 2.792174,-3.68086 4.592622,-5.14667 2.170797,-1.7774 3.915095,-4.01681 5.696783,-6.16887 1.74335,-2.10923 3.232213,-4.40292 4.708223,-6.70128 3.425852,-5.245593 5.018945,-5.620029 12.658728,-9.343497 0.303194,-0.14777 0.559609,0.376677 0.839414,0.565015 1.564685,1.925664 2.141596,4.510876 2.642352,6.898842 0.728606,2.65721 1.248058,5.36212 1.912627,8.03466 0.493694,2.48753 1.312749,4.88905 1.95838,7.33668 0.651478,3.30147 1.280726,6.60768 2.02224,9.89139 0.677031,2.85102 1.796581,5.55657 2.441887,8.41625 0.421134,1.85844 0.866365,3.67506 1.672346,5.40482 0.70757,1.76201 1.631141,3.4215 2.408277,5.15049 0.80994,2.14655 1.73272,4.24444 2.663979,6.34046 0.85058,2.3027 1.834324,4.56397 2.868623,6.79041 1.058328,2.53583 2.411132,4.92954 3.592274,7.40605 0.769541,2.47811 1.801551,4.85734 2.726354,7.27698 0.922827,2.04963 1.789716,4.13286 2.834103,6.12537 0.762455,1.26528 0.320426,0.72192 1.287018,1.6611 0,0 -9.501841,5.79032 -9.501841,5.79032 l 0,0 c -1.067514,-1.19524 -0.592426,-0.54976 -1.421712,-1.93907 -1.06817,-2.03031 -1.995977,-4.13592 -2.911395,-6.23768 -0.896814,-2.40126 -1.88308,-4.76965 -2.647943,-7.21975 -1.160285,-2.48639 -2.526604,-4.87247 -3.606895,-7.39764 -1.063971,-2.22072 -2.018281,-4.51277 -2.912782,-6.80446 -0.897218,-2.10634 -1.825127,-4.19913 -2.700686,-6.3149 -0.743152,-1.7307 -1.681345,-3.37174 -2.371805,-5.12755 -0.892717,-1.80334 -1.363363,-3.69042 -1.76766,-5.65783 -0.563337,-2.88168 -1.623189,-5.61231 -2.342348,-8.45453 -0.722604,-3.26726 -1.405557,-6.54229 -2.048396,-9.82447 -0.667343,-2.44772 -1.53714,-4.84394 -2.012487,-7.34158 -0.620332,-2.69784 -1.100252,-5.42839 -1.927238,-8.07512 -0.330521,-1.75824 -0.838611,-4.57897 -2.150092,-5.84287 -3.352382,1.76142 -2.238169,1.18283 8.729514,-5.200392 0.244171,-0.142111 -0.482007,0.302913 -0.684112,0.500314 -0.816012,0.797028 -1.386578,1.841264 -2.086872,2.73041 -1.526129,2.325348 -2.984433,4.697158 -4.750408,6.855198 -1.766628,2.16016 -3.477794,4.39498 -5.479576,6.34238 -1.829634,1.36671 -3.551831,2.84555 -4.757963,4.82213 -1.272106,1.92962 -2.492227,3.91814 -4.052842,5.63287 -1.49678,1.78728 -2.823464,3.69196 -3.987372,5.71411 -1.783976,2.28338 -3.366881,4.70717 -5.07025,7.04996 -1.793496,2.31769 -3.622791,4.61297 -5.471403,6.88541 -0.541453,0.6181 -1.517048,1.76524 -2.123609,2.32397 -1.683566,1.55083 -3.655553,2.77065 -5.425103,4.21463 -3.027134,2.62549 -6.234518,5.0454 -9.7262246,7.02668 -6.5151675,4.01124 -13.0420388,8.17184 -20.0901454,11.19094 0,0 8.8090245,-6.89614 8.8090245,-6.89614 z"
       inkscape:connector-curvature="0" />
    <path
       style="fill:#005522;stroke-width:0.26458332"
       id="path3360"
       d="m 79.341667,163.2217 c 4.221657,-2.89871 8.575156,-5.5924 12.772458,-8.52767 3.973502,-2.90796 7.784582,-6.05377 11.214565,-9.58993 3.1689,-3.98733 6.61598,-7.72103 10.14554,-11.38877 3.65572,-3.91883 7.64006,-7.49672 11.7567,-10.92044 2.77222,-2.20642 5.47344,-4.49565 8.08293,-6.89182 2.20738,-1.89855 4.36748,-3.83038 6.37235,-5.94272 1.11984,-1.20159 0.5661,-0.60654 1.66128,-1.78509 0,0 10.24358,-4.2845 10.24358,-4.2845 l 0,0 c -1.10948,1.18376 -0.5494,0.58434 -1.68013,1.79837 -2.00789,2.14872 -4.09064,4.19867 -6.39689,6.0327 -2.61719,2.46041 -5.34363,4.79497 -8.17613,7.00547 -4.19186,3.3592 -8.23836,6.90664 -11.9029,10.84202 -3.51533,3.6243 -7.00254,7.28099 -10.03884,11.32568 -3.35378,3.71121 -7.31177,6.81866 -11.27409,9.85317 -4.062005,2.88569 -8.289348,5.51648 -12.37638,8.36398 0,0 -10.404043,4.10955 -10.404043,4.10955 z"
       inkscape:connector-curvature="0" />
    <path
       style="fill:#005522;stroke-width:0.26458332"
       id="path3362"
       d="m 153.91091,102.34841 c -0.13586,4.0761 -0.22862,8.15764 0.003,12.23037 0.62594,6.42654 3.69779,12.15082 6.64913,17.76816 2.89952,5.64978 6.2233,11.06282 9.42193,16.54416 2.86127,5.15558 6.42482,9.84782 10.26835,14.29987 2.72619,2.64773 4.75888,5.84997 7.07914,8.83422 2.7658,3.65138 6.34015,6.53144 10.31677,8.76024 2.17707,0.98484 4.80481,2.25123 7.09062,0.96182 -9.22274,5.17985 -11.69934,7.30797 -8.59464,4.70041 0,0 10.28898,-4.44512 10.28898,-4.44512 l 0,0 c -2.04579,4.22478 -0.11353,0.56282 -10.51333,6.61526 -2.64793,0.4498 -5.17061,-0.62157 -7.46242,-1.87447 -3.97633,-2.44894 -7.60078,-5.44041 -10.51146,-9.11545 -2.36023,-2.93247 -4.43366,-6.08117 -7.00617,-8.8406 -3.75375,-4.59078 -7.30885,-9.35596 -10.2277,-14.53135 -3.26121,-5.46646 -6.51091,-10.94402 -9.41079,-16.61397 -2.98672,-5.74293 -6.18924,-11.55018 -7.0093,-18.07483 -0.34305,-4.0387 -0.17753,-8.08706 -0.35869,-12.1354 0,0 9.97658,-5.08332 9.97658,-5.08332 z"
       inkscape:connector-curvature="0" />
    <path
       style="fill:#005522;stroke-width:0.26458332"
       id="path3364"
       d="m 176.06969,150.36165 c 3.01022,-0.7869 5.8203,-2.18313 8.57014,-3.6095 0.96584,-0.50098 3.81166,-2.09887 2.87716,-1.5416 -2.04145,1.2174 -4.13307,2.34861 -6.19961,3.52291 6.41929,-3.90704 11.94884,-9.02483 17.38903,-14.15824 5.61131,-5.46541 11.17966,-10.97223 16.83145,-16.39614 2.98573,-2.99116 6.24556,-5.72848 8.9877,-8.95372 0.96336,-1.24967 0.49783,-0.6331 1.39811,-1.84855 0,0 10.20845,-4.40556 10.20845,-4.40556 l 0,0 c -0.92736,1.24825 -0.45079,0.60735 -1.42981,1.92265 -2.72348,3.41527 -6.18709,6.14373 -9.27164,9.21703 -5.74385,5.40465 -11.38598,10.91063 -16.98854,16.46151 -5.3961,5.14879 -10.83142,10.3326 -17.17113,14.32742 -7.7531,4.49668 -15.41151,9.55298 -24.02256,12.31499 0,0 8.82125,-6.8532 8.82125,-6.8532 z"
       inkscape:connector-curvature="0" />
    <path
       style="fill:#005522;stroke-width:0.26458332"
       id="path3366"
       d="m 237.8137,104.71073 c -0.39468,4.10003 0.26265,8.11501 1.0482,12.12179 1.21341,5.25601 3.43541,10.19656 5.3265,15.22629 2.25512,5.51589 4.8384,10.89124 7.48961,16.22569 2.58115,4.85319 5.22802,9.67407 8.06602,14.38237 2.39413,3.86085 5.0598,7.53339 7.73972,11.19636 2.12322,3.12373 4.62491,5.93138 7.32028,8.56729 2.89832,2.90106 6.26197,5.04036 10.14317,6.32009 1.62348,0.39437 0.83375,0.28486 2.36363,0.36652 0,0 -9.07132,6.42419 -9.07132,6.42419 l 0,0 c -1.60076,-0.29834 -0.78521,-0.0986 -2.44197,-0.61803 -3.88705,-1.53957 -7.28454,-3.85562 -10.27348,-6.78955 -2.75627,-2.67717 -5.40515,-5.44804 -7.49811,-8.69121 -2.58647,-3.75771 -5.26835,-7.45271 -7.63763,-11.35609 -2.81084,-4.75718 -5.52104,-9.57523 -8.08621,-14.46958 -2.63957,-5.37906 -5.18209,-10.81008 -7.51235,-16.33073 -1.94761,-5.0645 -4.20872,-10.03772 -5.5241,-15.32199 -0.82665,-4.0201 -1.49922,-8.05768 -1.4127,-12.17817 0,0 9.96074,-5.07524 9.96074,-5.07524 z"
       inkscape:connector-curvature="0" />
    <path
       style="fill:#005522;stroke-width:0.26458332"
       id="path3370"
       d="m 253.28828,143.97047 c 5.97145,-0.27547 11.46838,-3.1903 16.67416,-5.87577 10.062,-5.85666 -0.63013,0.41461 -1.1866,0.50607 -1.49088,0.24502 2.51505,-1.67561 3.74978,-2.54635 3.00863,-2.12168 5.87182,-4.39349 8.67505,-6.77514 3.16897,-2.71583 4.82748,-6.3383 6.29116,-10.12911 0.89712,-2.47836 1.46343,-5.05617 2.05361,-7.61947 0.47038,-2.14696 1.69855,-3.93882 2.90291,-5.72865 2.41091,-3.27875 9.44179,-9.709668 12.12567,-5.35617 0.43862,0.7115 0.52421,1.29041 0.73564,2.09118 0.5402,2.9473 1.35022,5.83083 2.16792,8.71144 0.57047,2.89025 1.39957,5.6986 2.33598,8.48883 0.71419,2.30991 1.59959,4.54247 2.25319,6.87107 0.48959,2.56716 1.54615,4.95165 2.55215,7.34528 1.07894,2.2377 2.17754,4.4652 3.27998,6.6913 0.96742,2.03622 1.4291,4.24955 2.24076,6.34058 0.95514,1.97649 1.85586,3.98977 3.12055,5.79204 0.85002,1.04364 0.41968,0.50623 1.28973,1.61327 0,0 -9.55325,5.70493 -9.55325,5.70493 l 0,0 c -0.89707,-1.1188 -0.45331,-0.5581 -1.33141,-1.68201 -1.26312,-1.89986 -2.25888,-3.95733 -3.25112,-6.00756 -0.8109,-2.06354 -1.24156,-4.25292 -2.17427,-6.27534 -1.07963,-2.2592 -2.20808,-4.4948 -3.29184,-6.75193 -1.03317,-2.42883 -2.09407,-4.86052 -2.61207,-7.4636 -0.68138,-2.30515 -1.55207,-4.53309 -2.22644,-6.83969 -0.90374,-2.82043 -1.79774,-5.63544 -2.31291,-8.55845 -0.78867,-2.88621 -1.68849,-5.74226 -2.2723,-8.6782 -0.11856,-0.47022 -0.22791,-1.13994 -0.52313,-1.56897 -0.0701,-0.10187 -0.17584,-0.2047 -0.29853,-0.22021 -0.12335,-0.0156 -0.45254,0.20323 -0.34629,0.13866 9.51058,-5.77846 11.59314,-7.560291 8.31117,-4.83749 -1.19964,1.69107 -2.50004,3.36571 -3.1106,5.37702 -0.67111,2.59653 -1.16041,5.24578 -2.06131,7.78171 -1.5317,3.95192 -3.12465,7.83709 -6.36733,10.74914 -2.86668,2.45484 -5.80911,4.77736 -8.87963,6.97627 -1.23214,0.88239 -2.44631,1.79525 -3.73682,2.58982 -4.22309,2.60011 -8.52032,5.07797 -12.7966,7.58967 -1.30591,0.76704 -2.63296,1.4975 -3.94944,2.24625 -5.50911,2.76731 -11.24016,5.62418 -17.52168,5.88055 0,0 9.04416,-6.57097 9.04416,-6.57097 z"
       inkscape:connector-curvature="0" />
    <path
       style="fill:#005522;stroke-width:0.26458332"
       id="path3372"
       d="m 56.454217,105.20742 c 0.642225,4.04709 2.21267,7.82629 3.690617,11.61888 2.758972,6.63736 6.038924,13.04119 9.094451,19.54424 3.321283,7.03288 6.381922,14.18615 9.573472,21.27875 2.397151,5.74273 4.73678,11.51084 7.652173,17.01409 2.518958,4.54738 4.587759,9.3175 6.723962,14.05027 1.762683,4.12622 3.850751,8.09926 5.861828,12.10698 0.775255,1.15806 0.39393,0.66095 1.10881,1.51765 0,0 -9.62874,5.69785 -9.62874,5.69785 l 0,0 c -0.664903,-1.03208 -0.30081,-0.44509 -1.074917,-1.77161 -1.883445,-4.08486 -3.846632,-8.13148 -5.67308,-12.24254 -2.143463,-4.70964 -4.263424,-9.43094 -6.714723,-13.99195 -2.812171,-5.58664 -5.163177,-11.37205 -7.515978,-17.16431 -3.112797,-7.11984 -6.171187,-14.26742 -9.496796,-21.29091 -3.113352,-6.49522 -6.398035,-12.90994 -9.340413,-19.48468 -1.556306,-3.82917 -3.157508,-7.63513 -4.178729,-11.65064 0,0 9.918063,-5.23207 9.918063,-5.23207 z"
       inkscape:connector-curvature="0" />
    <path
       style="fill:#005522;stroke-width:0.26458332"
       id="path3374"
       d="m 55.05719,128.09777 c 1.9387,6.08535 4.49471,11.93881 7.301656,17.66653 4.010702,7.58585 8.088842,15.13998 12.364627,22.58052 3.379552,5.8503 6.776157,11.6873 9.875875,17.69198 2.571879,5.41242 5.790141,10.46437 9.426733,15.21483 2.238703,2.54462 3.820753,5.55565 6.001179,8.14335 0.2448,0.26803 0.48959,0.53605 0.73439,0.80407 0,0 -9.515125,5.75603 -9.515125,5.75603 l 0,0 c -0.248155,-0.28502 -0.496311,-0.57004 -0.744463,-0.85506 -2.10094,-2.65971 -3.626991,-5.70864 -5.799432,-8.31876 -3.548655,-4.88311 -6.781463,-9.98991 -9.42078,-15.42878 -3.039655,-6.01892 -6.444528,-11.83317 -9.708351,-17.73138 -4.236958,-7.48604 -8.211725,-15.11609 -12.330464,-22.66695 -1.318998,-2.5923 -2.505496,-4.8437 -3.696549,-7.48897 -1.48984,-3.30886 -2.749855,-6.72208 -4.275416,-10.01635 0,0 9.78612,-5.35106 9.78612,-5.35106 z"
       inkscape:connector-curvature="0" />
    <path
       style="fill:#005522;stroke-width:0.26458332"
       id="path3376"
       d="m 52.788634,129.50034 c 1.671802,4.98538 3.057541,10.0584 4.606015,15.08241 2.59928,7.95766 5.990939,15.6099 9.800648,23.05271 3.639402,7.2721 7.69239,14.31326 11.793696,21.33012 1.882206,3.14584 0.993484,1.64083 2.670784,4.5123 0,0 -9.427316,5.42195 -9.427316,5.42195 l 0,0 c -1.544955,-2.93105 -0.717915,-1.39428 -2.490097,-4.60546 -3.920294,-7.13564 -8.015838,-14.17207 -11.601222,-21.4886 -3.875818,-7.45928 -7.369842,-15.13142 -10.092375,-23.0933 -1.620504,-4.95963 -2.984143,-10.02225 -5.044853,-14.82325 0,0 9.78472,-5.38888 9.78472,-5.38888 z"
       inkscape:connector-curvature="0" />
    <path
       style="fill:#005522;stroke-width:0.26458332"
       id="path3378"
       d="m 43.008518,115.60998 c 1.681025,3.37079 3.421089,6.70573 5.21876,10.01591 2.767846,4.73964 5.067165,9.74208 7.282535,14.75927 2.523905,5.8184 5.61681,11.36834 8.657053,16.92793 2.860783,5.22911 5.876165,10.35629 9.215532,15.29345 2.726378,3.73712 5.391661,7.51999 7.948171,11.37567 0.269634,0.40686 0.539268,0.81371 0.808902,1.22056 0,0 -9.544962,5.56998 -9.544962,5.56998 l 0,0 c -0.257027,-0.41484 -0.514054,-0.82968 -0.771083,-1.24452 -2.416776,-3.93125 -5.040207,-7.72359 -7.725995,-11.47412 -3.34641,-4.97289 -6.375564,-10.1317 -9.231897,-15.40194 -3.033305,-5.59698 -6.120749,-11.17717 -8.730626,-16.98782 -2.206164,-4.98549 -4.566123,-9.92119 -7.313813,-14.63224 -1.836298,-3.2776 -3.624186,-6.5815 -5.510977,-9.82851 0,0 9.6984,-5.59362 9.6984,-5.59362 z"
       inkscape:connector-curvature="0" />
    <path
       style="fill:#005522;stroke-width:0.26458332"
       id="path3380"
       d="m 51.109311,110.56942 c 0.131963,6.07457 2.534808,11.8808 4.507187,17.54643 3.621183,9.99247 8.178043,19.61017 12.597111,29.26617 3.959217,8.58056 8.142716,17.05593 12.283782,25.54953 1.73582,3.30122 3.153031,6.75447 5.018037,9.9855 0,0 -9.500116,5.44683 -9.500116,5.44683 l 0,0 c -1.682575,-3.35762 -3.023555,-6.86748 -4.684691,-10.23692 -3.980014,-8.58506 -8.168167,-17.0686 -12.09022,-25.68065 -4.362752,-9.7083 -8.927735,-19.33701 -12.76222,-29.27133 -2.101606,-5.71254 -4.565626,-11.43769 -5.361302,-17.51416 0,0 9.992432,-5.0914 9.992432,-5.0914 z"
       inkscape:connector-curvature="0" />
    <path
       style="fill:#005522;stroke-width:0.26458332"
       id="path3382"
       d="m 38.490083,132.59145 c 2.664944,7.43346 5.252624,14.89291 7.86901,22.34456 3.143919,9.86511 7.400766,19.29656 12.286937,28.40637 2.861805,4.87162 5.725126,9.74192 8.645012,14.57895 1.306671,2.21643 2.834542,4.28082 4.440777,6.28519 0,0 -9.443529,5.63331 -9.443529,5.63331 l 0,0 c -1.597076,-2.07034 -3.123333,-4.18951 -4.417685,-6.46706 -2.836317,-4.90779 -5.692388,-9.80267 -8.368191,-14.80217 -4.718844,-9.25864 -8.787127,-18.82804 -12.039671,-28.70537 -2.737366,-7.34193 -5.489935,-14.69225 -8.705617,-21.83865 0,0 9.732957,-5.43513 9.732957,-5.43513 z"
       inkscape:connector-curvature="0" />
    <path
       style="fill:#005522;stroke-width:0.26458332"
       id="path3384"
       d="m 41.510749,129.45485 c 2.623716,6.10398 5.283379,12.19208 8.010175,18.25113 4.958056,10.22163 10.389754,20.20544 15.612864,30.29339 3.929946,7.9315 8.009721,15.79171 12.41915,23.46821 1.828506,2.49879 2.72115,6.23245 5.374669,8.01025 0,0 -9.423111,5.93648 -9.423111,5.93648 l 0,0 c -2.585125,-2.26103 -3.545224,-5.71142 -5.283171,-8.58724 -4.100732,-7.86371 -8.013978,-15.82445 -11.879535,-23.80584 -5.218835,-10.10524 -10.811195,-20.00984 -15.902739,-30.18021 -2.849544,-5.98486 -5.491819,-12.0775 -8.65497,-17.90631 0,0 9.726668,-5.47986 9.726668,-5.47986 z"
       inkscape:connector-curvature="0" />
    <path
       style="fill:#005522;stroke-width:0.26458332"
       id="path3386"
       d="m 29.354811,140.94896 c 1.726243,6.56224 4.890408,12.59466 7.650814,18.75493 3.629948,8.30065 7.54726,16.46107 11.711678,24.50505 3.185019,6.22034 6.720845,12.24712 10.182187,18.3146 0.427707,0.71585 0.855414,1.4317 1.283121,2.14756 0,0 -9.391398,5.42486 -9.391398,5.42486 l 0,0 c -0.411946,-0.73116 -0.823889,-1.46231 -1.235832,-2.19346 -3.37665,-6.13296 -6.770367,-12.25551 -9.962491,-18.48793 -4.083087,-8.10459 -8.023371,-16.27104 -11.671226,-24.58345 -2.831209,-6.15679 -6.060082,-12.13915 -8.352973,-18.5311 0,0 9.78612,-5.35106 9.78612,-5.35106 z"
       inkscape:connector-curvature="0" />
    <path
       style="fill:#005522;stroke-width:0.26458332"
       id="path3388"
       d="m 19.52743,150.77634 c 2.409115,6.44961 6.638621,12.05033 10.441694,17.72976 6.077415,9.41521 12.431823,18.63538 19.613123,27.24459 2.457055,2.92899 5.254722,5.52742 8.068923,8.10135 0,0 -9.11662,5.6176 -9.11662,5.6176 l 0,0 c -2.721327,-2.69581 -5.431571,-5.40846 -7.844269,-8.39216 -7.013355,-8.76964 -13.336484,-18.04067 -19.619397,-27.34205 -3.999989,-5.70613 -8.356572,-11.2729 -11.329574,-17.60802 0,0 9.78612,-5.35107 9.78612,-5.35107 z"
       inkscape:connector-curvature="0" />
    <path
       style="fill:#005522;stroke-width:0.26458332"
       id="path3392"
       d="m 12.738988,157.67978 c 2.046451,3.13253 4.620901,5.87259 7.147689,8.61568 3.967506,4.13056 7.029552,8.99903 10.225816,13.72157 3.449193,5.14682 7.099763,10.15153 10.655181,15.22446 2.239989,3.27067 4.86432,6.23354 7.694875,8.9977 1.96588,1.51912 4.03113,2.90528 6.05995,4.33865 1.95153,1.6237 3.981971,3.11078 6.061276,4.56641 0.319315,0.1978 0.63863,0.3956 0.957948,0.59341 0,0 -9.349576,6.00927 -9.349576,6.00927 l 0,0 c -0.32253,-0.21423 -0.645057,-0.42846 -0.967587,-0.64269 -2.071994,-1.46285 -4.071257,-3.00183 -6.068639,-4.56314 -2.072944,-1.45681 -4.186341,-2.87383 -6.102633,-4.5362 -2.799347,-2.86838 -5.396688,-5.9244 -7.582945,-9.29388 -3.493876,-5.11563 -7.125444,-10.13224 -10.58349,-15.27274 -3.218845,-4.64807 -6.341053,-9.4 -10.237918,-13.52317 -2.6097708,-2.73876 -5.2350679,-5.47436 -7.545476,-8.47635 0,0 9.635529,-5.75898 9.635529,-5.75898 z"
       inkscape:connector-curvature="0" />
    <path
       style="fill:#005522;stroke-width:0.26458332"
       id="path3394"
       d="m 4.3461527,161.08138 c 1.1908258,3.74337 3.4314135,7.06541 5.54934,10.33672 4.1793443,6.50491 8.7983503,12.71125 13.3060333,18.98907 4.695505,6.612 9.485268,13.15908 14.339621,19.65569 3.924556,5.36977 8.1535,10.5122 12.779374,15.29144 1.533663,1.65984 3.41443,2.8839 5.314276,4.07126 1.399794,0.87484 2.450721,1.55665 4.050485,1.9532 0.30371,-0.0197 0.60742,-0.0394 0.911129,-0.0591 0,0 -9.066223,6.48804 -9.066223,6.48804 l 0,0 c -0.34086,-0.066 -0.681717,-0.1321 -1.022574,-0.19815 C 46.950905,236.15987 43.82226,233.628 41.095538,230.9743 36.544511,226.08602 32.396842,220.83446 28.42774,215.46644 23.598267,208.94673 18.895518,202.3343 14.148838,195.7543 9.6267166,189.461 4.9603628,183.26985 0.5997799,176.86238 c -2.2582716,-3.3227 -4.5756868,-6.67659 -6.0961374,-10.4159 0,0 9.8425102,-5.3651 9.8425102,-5.3651 z"
       inkscape:connector-curvature="0" />
    <path
       style="fill:#005522;stroke-width:0.26458332"
       id="path3396"
       d="m 144.12668,123.75375 c 1.03033,6.93928 3.51002,13.55314 5.96717,20.0876 3.91328,9.98273 7.98719,19.89403 12.79204,29.48331 3.17006,6.56994 7.19234,12.64489 11.8001,18.28194 1.09134,1.25474 2.1893,2.5637 3.50101,3.60363 0.86408,0.68504 1.88383,1.19895 2.79651,1.81785 0,0 -9.3882,5.99559 -9.3882,5.99559 l 0,0 c -0.94859,-0.65436 -1.96296,-1.24315 -2.82917,-2.00901 -1.28405,-1.13528 -2.34017,-2.51678 -3.40474,-3.8478 -4.40485,-5.86661 -8.3451,-12.07499 -11.47498,-18.72333 -4.7155,-9.66398 -8.75817,-19.61754 -12.83764,-29.56275 -2.6229,-6.53317 -5.14177,-13.12367 -6.80414,-19.9785 0,0 9.88204,-5.14853 9.88204,-5.14853 z"
       inkscape:connector-curvature="0" />
    <path
       style="fill:#005522;stroke-width:0.26458332"
       id="path3398"
       d="m 145.88685,117.19933 c 2.29925,4.35293 4.20869,8.89706 6.28122,13.35963 4.47296,9.63771 8.81044,19.34473 12.7405,29.21702 4.05289,11.30758 8.75187,22.1305 14.67656,32.58099 3.80576,6.21803 7.95262,11.1556 14.39242,14.65331 0.92109,0.35933 2.13932,0.95421 3.18831,0.94806 0.39199,-0.002 0.75843,-0.19857 1.13765,-0.29786 -2.89902,1.56833 -5.79803,3.13667 -8.69705,4.705 0,0 10.3512,-4.05635 10.3512,-4.05635 l 0,0 c -8.67543,4.89771 -8.48681,7.85506 -15.12978,4.63599 -6.20432,-3.88708 -10.52107,-9.13191 -14.19189,-15.44218 -5.71029,-10.53775 -10.43996,-21.53158 -14.58157,-32.777 -4.04321,-9.78657 -8.3425,-19.47486 -13.0872,-28.94374 -2.19103,-4.34671 -4.22091,-8.79049 -6.73554,-12.9633 0,0 9.65517,-5.61957 9.65517,-5.61957 z"
       inkscape:connector-curvature="0" />
    <path
       style="fill:#005522;stroke-width:0.26458332"
       id="path3400"
       d="m 132.85877,134.84146 c 1.42179,5.20476 3.58183,10.19038 5.69401,15.14572 3.75919,8.62496 8.19654,16.93129 12.82648,25.11408 3.42644,5.92126 7.24886,11.6114 11.18558,17.20421 2.07948,2.81432 4.3577,5.48069 6.6567,8.1175 0.36756,0.3761 0.73512,0.75219 1.10269,1.12829 0,0 -9.40926,5.74277 -9.40926,5.74277 l 0,0 c -0.37586,-0.39453 -0.75171,-0.78906 -1.12756,-1.18358 -2.30125,-2.68488 -4.6309,-5.36058 -6.61867,-8.29141 -3.7323,-5.75894 -7.38175,-11.57883 -10.796,-17.53228 -4.59019,-8.23942 -9.10189,-16.53468 -13.03814,-25.11123 -2.24343,-4.9542 -4.45148,-9.9341 -6.31977,-15.04409 0,0 9.84394,-5.28998 9.84394,-5.28998 z"
       inkscape:connector-curvature="0" />
    <path
       style="fill:#005522;stroke-width:0.26458332"
       id="path3402"
       d="m 120.08974,150.50973 c 2.29707,5.96707 5.14205,11.70661 7.99142,17.42423 3.45045,6.88635 7.23151,13.5991 11.18672,20.20616 1.9055,3.14507 3.86292,6.25811 5.80955,9.37773 2.06714,3.29807 4.39115,6.41995 6.80614,9.4685 0.30846,0.37694 0.61692,0.75389 0.92538,1.13083 0,0 -9.48886,5.66512 -9.48886,5.66512 l 0,0 c -0.29746,-0.38799 -0.59494,-0.77599 -0.89241,-1.16398 -2.36832,-3.12206 -4.68612,-6.28611 -6.82519,-9.57098 -2.0335,-3.08635 -3.94237,-6.25226 -5.6912,-9.50949 -3.70721,-6.77082 -7.35698,-13.57308 -10.93259,-20.41439 -2.93063,-5.68364 -5.78837,-11.40207 -8.63835,-17.12628 0,0 9.74939,-5.48745 9.74939,-5.48745 z"
       inkscape:connector-curvature="0" />
    <path
       style="fill:#005522;stroke-width:0.26458332"
       id="path3404"
       d="m 127.73295,151.0933 c 3.16803,5.48239 6.38637,10.93735 9.64854,16.36492 4.43029,7.33916 8.74541,14.74699 13.20635,22.06784 3.39447,5.72885 7.37964,11.06489 11.29908,16.43693 2.82398,3.42676 5.43801,7.33525 9.45835,9.44746 0.31778,-0.004 0.63555,-0.008 0.95332,-0.0117 0,0 -9.1172,6.38947 -9.1172,6.38947 l 0,0 c -0.37042,-0.12236 -0.74085,-0.24472 -1.11127,-0.36707 -3.88453,-2.53829 -6.58127,-6.39439 -9.4076,-9.99997 -3.93959,-5.39211 -7.88192,-10.79949 -11.23753,-16.58275 -4.37849,-7.36683 -8.57227,-14.84471 -13.1176,-22.1121 -3.32047,-5.36525 -6.55395,-10.79863 -10.20752,-15.94654 0,0 9.63308,-5.6865 9.63308,-5.6865 z"
       inkscape:connector-curvature="0" />
    <path
       style="fill:#005522;stroke-width:0.26458332"
       id="path3406"
       d="m 111.05286,155.04076 c 2.34142,5.08694 4.96953,10.04175 7.53557,15.01887 0.67249,1.30546 1.34231,2.61229 2.01747,3.91637 2.04464,3.94924 2.42488,4.80326 4.77933,8.67359 2.73234,4.49149 5.75621,8.75299 8.86627,12.986 4.29301,5.57626 9.18806,10.67424 14.66476,15.09209 1.9153,1.0726 0.98053,0.69685 2.7611,1.22932 0,0 -9.19817,6.17697 -9.19817,6.17697 l 0,0 c -1.80874,-0.856 -0.8668,-0.33004 -2.78723,-1.64507 -5.31505,-4.67684 -10.10052,-9.90819 -14.32091,-15.59812 -5.91892,-8.14331 -11.46145,-16.55117 -15.93363,-25.59151 -2.68308,-4.91815 -5.3681,-9.8356 -8.10022,-14.72656 0,0 9.71566,-5.53195 9.71566,-5.53195 z"
       inkscape:connector-curvature="0" />
    <path
       style="fill:#005522;stroke-width:0.26458332"
       id="path3408"
       d="m 98.137717,157.241 c 1.548976,4.84567 3.790193,9.39852 6.240033,13.84133 3.32486,5.78389 7.10932,11.27748 10.90709,16.75555 2.92536,3.95267 5.22454,8.31888 8.17916,12.24647 1.53321,1.83703 0.76013,0.99976 2.2968,2.53235 0,0 -9.41838,5.73952 -9.41838,5.73952 l 0,0 c -1.51132,-1.67023 -0.74039,-0.77604 -2.29961,-2.6939 -2.86757,-4.00017 -5.13341,-8.39065 -8.01668,-12.38429 -3.74587,-5.55095 -7.51298,-11.08847 -10.907245,-16.86639 -2.518913,-4.43254 -4.767496,-8.98785 -6.749767,-13.6843 0,0 9.768599,-5.48634 9.768599,-5.48634 z"
       inkscape:connector-curvature="0" />
    <path
       style="fill:#005522;stroke-width:0.26458332"
       id="path3410"
       d="m 144.39679,117.72966 c -3.44711,2.85201 -6.79856,5.81134 -10.09415,8.83632 -4.4211,4.0517 -8.63228,8.3155 -12.67888,12.73884 -3.38957,3.96597 -6.51799,8.13558 -9.93415,12.08046 -3.33427,3.6507 -6.4041,7.52853 -9.66284,11.2458 -2.00013,1.95667 -3.621395,4.5729 -6.083735,6.03098 -3.478609,2.05987 -7.018115,4.01512 -10.527173,6.02268 -0.304178,-0.004 -0.656934,0.15248 -0.91254,-0.0125 -0.317298,-0.20476 -0.514479,-0.59396 -0.597918,-0.96226 -0.455808,-2.01195 3.229739,-4.12848 4.442224,-4.97246 6.657721,-4.77037 14.121592,-7.85217 21.379722,-11.4524 1.83482,-0.91011 4.97645,-2.60258 6.778,-3.56324 8.39843,-4.81504 -1.82762,1.06674 -2.95071,1.5832 -0.97457,0.44815 1.78377,-1.19236 2.66005,-1.81105 2.03656,-1.43791 3.82462,-2.95411 5.56752,-4.72673 1.96954,-2.00297 3.30752,-4.44475 4.64956,-6.87715 1.38896,-1.93879 2.80258,-3.83051 4.07147,-5.85315 1.78345,-3.29472 0.5004,-0.9957 10.08728,-4.20201 0.45829,-0.15327 -0.67354,0.69326 -1.00159,1.04809 -1.73195,1.87334 -3.43444,3.77223 -5.17515,5.63797 -4.15407,4.53598 -8.84505,8.49935 -13.68709,12.2709 -5.25725,4.11424 -11.00494,7.28027 -16.85175,10.54765 -1.19856,0.66979 -0.97546,0.5695 -1.90816,0.11517 -0.0776,-0.46991 -0.35044,-0.94824 -0.23268,-1.40971 0.18685,-0.73228 2.00929,-2.05064 2.396,-2.34189 2.19303,-1.65163 4.55994,-3.04663 6.88621,-4.49772 5.07509,-2.86629 9.93191,-6.03514 14.49432,-9.6605 3.58619,-2.78812 6.18998,-6.42471 8.55471,-10.23978 1.32686,-2.22708 2.31502,-4.61406 3.87912,-6.69232 1.36459,-1.47429 2.66015,-2.95066 3.68698,-4.68256 0.42724,-0.64344 0.79058,-1.29573 1.00999,-2.03224 0.0134,-0.0449 -0.16082,0.83642 -0.0707,0.79301 3.07054,-1.47916 5.95564,-3.31584 8.93346,-4.97377 -3.31856,2.42873 -5.89372,5.69885 -8.52187,8.82428 -3.00881,3.96271 -6.49596,7.43097 -10.26552,10.65613 -3.39791,2.90681 -7.21524,5.25433 -10.88378,7.79309 -2.93413,1.66278 -5.7373,3.50753 -8.50848,5.42451 -1.46335,0.98251 -2.96073,1.91608 -4.39625,2.93988 -0.36183,0.25805 -0.71514,0.52796 -1.0674,0.79894 -0.15899,0.1223 -0.27935,0.30733 -0.46605,0.38067 -3.2617,1.28127 -6.56723,2.44802 -9.850846,3.67203 4.240086,-3.5967 8.419496,-7.26553 12.574786,-10.96167 5.027,-4.37421 10.3249,-8.45262 14.941,-13.27238 2.50343,-2.39166 3.98026,-5.47369 5.70553,-8.40375 3.52427,-5.31614 9.9749,-7.79829 15.80294,-9.99843 1.19,-0.43467 2.51074,-0.63012 3.65959,-1.18325 0.13247,-0.0638 0.45632,-0.37098 0.34106,-0.2797 -11.92244,9.44237 -12.5385,9.22059 -0.35356,2.19431 -3.3523,1.87416 -6.24814,4.38848 -8.95394,7.08617 -3.09145,3.26602 -5.68897,6.94389 -8.28921,10.60023 -2.06204,2.84356 -4.405,5.47002 -7.09669,7.72647 0,0 -10.24357,4.11536 -10.24357,4.11536 l 0,0 c 0.65267,-0.50606 1.88207,-1.43613 2.47209,-1.99171 1.77226,-1.66886 3.28414,-3.61847 4.82588,-5.49214 2.628,-3.69793 5.26723,-7.40275 8.29749,-10.78606 2.57591,-2.72774 5.33813,-5.29068 8.56455,-7.24304 3.44155,-1.99269 6.65639,-7.51395 10.32465,-5.97807 6.16921,2.58302 -10.19179,7.34554 -12.23767,8.05708 -3.8017,1.56178 -9.42949,4.94627 5.60157,-3.7831 0.33188,-0.19274 -0.63647,0.43133 -0.93119,0.67717 -0.85748,0.71528 -0.95994,0.93192 -1.65826,1.80099 -1.8822,2.96342 -3.25368,6.25427 -5.85956,8.71547 -4.57773,4.94966 -9.98924,9.00638 -15.06392,13.42363 -3.99853,3.58806 -7.94819,7.24606 -12.10541,10.64852 -3.6272,1.59967 -7.23423,3.24587 -10.881592,4.79902 -0.224559,0.0956 0.404956,-0.27302 0.599395,-0.42055 1.777617,-1.34872 3.584477,-2.65314 5.490047,-3.82105 2.81543,-1.86671 5.48516,-3.95994 8.55258,-5.42755 3.68984,-2.57633 7.56999,-4.89283 11.05725,-7.7475 3.79499,-3.21522 7.31322,-6.449 10.29836,-10.46791 2.56756,-3.12318 5.12127,-6.29054 8.1261,-9.00739 3.46242,-1.9807 6.80271,-4.19211 10.38726,-5.94211 0.50114,-0.24467 1.12809,0.75013 1.20134,1.07498 0.20647,0.91561 -0.42308,1.76727 -0.87573,2.48037 -1.01338,1.77578 -2.06694,3.47103 -3.62221,4.83993 -1.73518,2.00002 -2.84455,4.3237 -4.10186,6.63921 -2.42002,3.89986 -4.93182,7.73313 -8.5664,10.64432 -4.53857,3.69035 -9.34297,6.98108 -14.48158,9.79127 -2.26141,1.42425 -4.54554,2.77826 -6.7244,4.32666 -0.4889,0.34744 -0.9746,0.69936 -1.46157,1.0495 -0.30996,0.22286 -0.55667,0.58608 -0.92921,0.6695 -0.25015,0.056 -0.47116,-0.20212 -0.70673,-0.30318 0.44645,-0.37518 0.0967,-0.10545 1.18031,-0.60221 -2.55085,1.50055 -5.1017,3.0011 -7.65255,4.50165 -0.66627,0.36811 1.24519,-0.87595 1.87199,-1.30786 3.41472,-2.35298 0.56342,-0.32265 4.05969,-2.84909 4.89578,-3.6988 9.64876,-7.59022 13.80796,-12.1226 1.53541,-1.67237 2.16123,-2.33339 3.61049,-3.98494 0.43588,-0.49673 0.87047,-0.99477 1.29255,-1.50327 0.28148,-0.33911 0.4242,-0.8404 0.81763,-1.03901 3.4917,-1.76261 7.12385,-3.23307 10.71512,-4.78274 0.0887,-0.0383 -0.11462,0.15551 -0.17193,0.23326 -0.7166,0.86117 -1.15031,1.83107 -1.78078,2.74983 -0.45225,0.65906 -1.13369,1.37399 -1.63134,1.99234 -0.26964,0.33504 -0.52115,0.68428 -0.78173,1.02642 -1.43477,2.48804 -2.65406,5.11515 -4.70263,7.19703 -6.49168,7.02114 -15.48284,10.99692 -23.599,15.78622 -4.41895,2.3373 -8.925405,4.46297 -13.38483,6.71664 -1.019652,0.51531 -4.001736,2.19999 -3.038782,1.58521 2.15319,-1.37467 4.410395,-2.57917 6.615594,-3.86876 -1.962074,1.24745 -1.830136,1.05693 -3.412152,2.40284 -0.284093,0.2417 -0.520332,0.53961 -0.82107,0.76025 -0.351362,0.25778 -1.075002,0.36798 -0.755404,0.0267 0.152752,-0.16313 0.421124,-0.14979 0.631684,-0.22469 -15.931073,9.42372 -9.011501,5.79929 -6.063117,3.22109 1.437029,-1.2566 2.662404,-2.72349 3.964781,-4.11247 3.299894,-3.69855 6.382837,-7.5794 9.704966,-11.25614 3.46962,-3.94007 6.65016,-8.10582 10.01201,-12.13518 4.00443,-4.45512 8.21416,-8.71356 12.59169,-12.80356 3.18264,-2.98272 6.44794,-5.8715 9.7353,-8.73653 0,0 10.35715,-4.19721 10.35715,-4.19721 z"
       inkscape:connector-curvature="0" />
    <path
       style="fill:#005522;stroke-width:0.26458332"
       id="path3412"
       d="m 230.54247,118.58735 c 3.56108,6.44134 6.42717,13.28337 9.32145,20.04897 3.48454,8.41079 6.77036,16.91172 10.79096,25.08879 2.54716,5.1804 3.46127,6.62985 6.2608,11.5682 3.49916,5.61707 7.334,11.24827 12.46722,15.52671 2.24247,1.86906 3.33848,2.36594 5.77995,3.76176 1.87553,0.75139 4.0667,2.09732 6.21858,1.69668 0.42538,-0.0792 1.54676,-0.77567 1.16687,-0.56858 -9.08153,4.95026 -10.2906,7.39077 -7.87982,3.42969 0,0 10.04144,-4.59289 10.04144,-4.59289 l 0,0 c -1.74924,5.33166 -0.28631,2.01245 -10.93372,7.93148 -1.81671,1.00992 -6.10431,-1.31766 -7.60704,-2.08051 -2.37214,-1.50771 -3.55822,-2.14066 -5.73501,-4.07551 -5.05069,-4.48934 -8.82977,-10.24554 -12.26128,-15.99858 -2.57391,-4.69336 -3.81041,-6.81941 -6.18656,-11.69452 -3.98913,-8.18443 -7.3381,-16.65492 -11.02208,-24.97563 -2.05536,-4.39241 -4.12575,-8.76906 -6.3277,-13.09026 -0.9382,-1.84117 -1.65412,-3.32382 -2.76948,-5.01702 -0.292,-0.44328 -0.63844,-0.84819 -0.95766,-1.27228 0,0 9.63308,-5.6865 9.63308,-5.6865 z"
       inkscape:connector-curvature="0" />
    <path
       style="fill:#005522;stroke-width:0.26458332"
       id="path3414"
       d="m 222.87524,130.14371 c 1.11966,5.25757 2.66377,10.40488 4.32632,15.51248 0.48187,1.36372 0.96182,2.72812 1.44563,4.09115 1.09349,3.08067 2.14365,6.11683 3.39094,9.14189 2.19837,5.33177 4.86393,10.4553 7.4128,15.62337 4.48227,8.64655 9.79975,16.83632 15.70403,24.5737 2.12649,2.55877 4.08656,5.42517 7.04083,7.08701 0,0 -9.35729,6.02872 -9.35729,6.02872 l 0,0 c -2.87004,-1.97387 -4.89647,-4.86803 -6.92482,-7.65126 -5.54827,-8.04716 -10.64121,-16.41244 -15.25275,-25.03093 -2.63854,-5.15402 -5.37979,-10.26414 -7.65962,-15.59186 -1.35665,-3.17036 -2.3176,-5.88242 -3.52366,-9.09651 -0.50939,-1.35749 -1.02353,-2.7132 -1.53529,-4.0698 -1.76664,-5.01384 -3.40366,-10.06839 -4.84649,-15.18476 0,0 9.77937,-5.4332 9.77937,-5.4332 z"
       inkscape:connector-curvature="0" />
    <path
       style="fill:#005522;stroke-width:0.26458332"
       id="path3416"
       d="m 211.66247,146.04467 c 3.22202,6.23138 7.30802,11.96286 11.22862,17.76375 4.66982,6.75916 9.16358,13.63727 13.55244,20.58146 3.47319,5.75092 7.0869,11.39921 11.17227,16.73586 2.95148,3.52236 5.78717,7.28568 9.62123,9.89974 0,0 -9.3427,5.92107 -9.3427,5.92107 l 0,0 c -3.69273,-2.91708 -6.47861,-6.7663 -9.48461,-10.34776 -4.07981,-5.37515 -7.69947,-11.06061 -11.12249,-16.87446 -4.37012,-6.93781 -8.73147,-13.88565 -13.40017,-20.6284 -3.98437,-5.81709 -8.09855,-11.54484 -11.89528,-17.48914 0,0 9.67069,-5.56212 9.67069,-5.56212 z"
       inkscape:connector-curvature="0" />
    <path
       style="fill:#005522;stroke-width:0.26458332"
       id="path3418"
       d="m 201.51213,151.7687 c -0.10328,3.99069 -0.23729,8.04372 0.40696,12.00259 0.63415,3.89683 1.31179,5.55536 2.5095,9.3775 2.37424,6.68578 5.456,13.14176 9.16369,19.19354 1.91919,3.13255 3.24512,4.90648 5.35084,7.88396 4.31144,5.79474 9.50338,10.8746 15.46371,14.94485 2.4447,1.34819 5.19686,2.87346 8.09182,2.89461 0.42249,0.003 0.83866,-0.10337 1.25798,-0.15505 1.42622,-0.48907 0.77283,-0.17 1.97335,-0.92977 0,0 -8.70497,6.94417 -8.70497,6.94417 l 0,0 c -1.3777,0.48514 -0.64624,0.2957 -2.20203,0.53784 -3.50704,-0.0913 -6.65918,-1.52922 -9.53293,-3.4942 -5.85912,-4.35019 -11.04809,-9.52514 -15.32665,-15.4539 -2.07689,-3.0052 -3.42562,-4.85689 -5.31934,-8.01267 -3.68531,-6.14134 -6.75571,-12.6761 -9.26724,-19.37703 -1.28875,-3.82879 -2.01031,-5.54802 -2.79261,-9.45435 -0.78155,-3.90259 -0.75485,-7.88868 -1.00111,-11.843 0,0 9.92903,-5.05909 9.92903,-5.05909 z"
       inkscape:connector-curvature="0" />
    <path
       style="fill:#005522;stroke-width:0.26458332"
       id="path3420"
       d="m 193.51185,151.97315 c 2.90461,6.12965 6.68367,11.78329 10.4809,17.38381 4.24319,6.12905 8.85655,12.00526 14.06654,17.34513 2.65287,2.719 4.44414,4.30692 7.20149,6.84876 4.49465,3.87307 9.18725,7.51687 13.99928,10.98596 1.52077,1.01755 3.17942,1.79836 5.01949,1.99091 0.41106,0.043 0.84941,0.16008 1.23969,0.024 0.33156,-0.11558 0.51062,-0.48211 0.76592,-0.72315 -2.9838,1.60575 -5.9676,3.21152 -8.9514,4.81728 0,0 10.13063,-4.60675 10.13063,-4.60675 l 0,0 c -3.29045,2.24951 -6.5809,4.49901 -9.87135,6.74852 -0.36346,0.0717 -0.72,0.20711 -1.09038,0.21508 -2.402,0.0517 -4.63202,-1.2863 -6.52041,-2.59805 -4.6573,-3.63661 -9.17907,-7.44759 -13.58213,-11.3879 -2.41751,-2.32963 -4.77896,-4.56086 -7.1021,-6.99204 -5.18803,-5.42933 -9.82419,-11.34372 -14.23185,-17.41573 -3.92445,-5.54733 -7.79617,-11.13505 -11.20949,-17.01631 0,0 9.65517,-5.61956 9.65517,-5.61956 z"
       inkscape:connector-curvature="0" />
    <path
       style="fill:#005522;stroke-width:0.26458332"
       id="path3422"
       d="m 227.99424,118.97936 c -0.48366,5.13544 -3.29937,8.65363 -6.65248,12.34496 -5.41898,5.2445 -11.17572,10.13908 -16.934,15.00652 -4.72969,4.29853 -9.76885,8.15333 -15.19587,11.51922 -5.23348,2.90805 -10.37402,6.6033 -16.21552,8.37381 -2.13003,0.6456 -4.31019,0.99428 -6.50461,1.32457 -1.77227,0.182 -3.49008,0.62407 -5.20089,1.09679 0,0 8.74526,-6.69433 8.74526,-6.69433 l 0,0 c 1.72303,-0.40497 3.45292,-0.76375 5.21279,-0.9752 2.14196,-0.34912 4.24295,-0.7431 6.30654,-1.43899 3.45315,-1.16447 11.70702,-5.72868 -2.4113,2.20782 1.44878,-0.8757 3.41859,-2.04298 4.81704,-2.98457 2.76051,-1.85868 5.28352,-3.94242 7.81394,-6.09515 0.93269,-0.79348 1.87411,-1.57666 2.81117,-2.36499 5.7498,-4.80405 11.42791,-9.71321 16.8847,-14.84673 3.07737,-3.20871 6.17463,-6.75713 6.54665,-11.39041 0,0 9.97658,-5.08332 9.97658,-5.08332 z"
       inkscape:connector-curvature="0" />
    <path
       style="fill:#005522;stroke-width:0.26458332"
       id="path3424"
       d="m 230.59329,120.88927 c -3.8096,5.31703 -7.19042,10.92278 -10.77495,16.39007 -4.87584,7.42356 -9.84568,14.78679 -15.65206,21.51823 -7.42139,7.92505 -17.1585,13.34112 -27.21215,17.25113 -3.65135,1.2183 -7.43058,2.08415 -11.2798,2.27708 0,0 8.90759,-6.5478 8.90759,-6.5478 l 0,0 c 3.69346,-0.22865 7.31579,-1.10526 10.79542,-2.35142 0.96952,-0.3963 1.95291,-0.76025 2.90857,-1.18889 1.0332,-0.46342 3.9714,-2.15091 3.05489,-1.48589 -1.85945,1.34921 -3.86513,2.4974 -5.90511,3.554 -1.11962,0.57991 2.12671,-1.35978 3.13373,-2.11856 2.47117,-1.86201 3.67139,-3.15115 5.90472,-5.3023 0.93121,-1.03798 1.89787,-2.04521 2.79362,-3.11393 4.79776,-5.72418 8.73314,-12.12483 12.94009,-18.27619 3.47017,-5.32876 6.71832,-10.79859 10.17328,-16.13737 0,0 10.21216,-4.46816 10.21216,-4.46816 z"
       inkscape:connector-curvature="0" />
    <path
       style="fill:#005522;stroke-width:0.26458332"
       id="path3426"
       d="m 219.26518,116.52881 c -0.479,0.0616 -0.96199,0.0977 -1.43702,0.18488 -1.45499,0.26695 -3.01737,0.68435 -4.38621,1.22294 -0.92551,0.36416 -3.55365,1.7721 -2.71509,1.23732 13.70524,-8.74028 5.41488,-2.86632 3.57396,-1.52355 -6.12982,5.03241 -11.20197,11.13907 -16.36425,17.11383 -5.30561,6.12935 -11.74998,11.03817 -18.31023,15.72804 -3.45253,2.31323 -6.70432,4.90036 -10.04854,7.36089 0,0 -10.19964,4.02665 -10.19964,4.02665 l 0,0 c 3.50826,-2.41491 6.76775,-5.18326 10.35878,-7.48766 6.61561,-4.61178 13.12676,-9.45076 18.49354,-15.52587 5.17484,-5.95957 10.17364,-12.10635 16.17903,-17.27638 5.96394,-4.69775 3.37922,-2.87559 14.74008,-9.08202 2.7938,-1.52625 6.03979,-2.23392 9.17414,-2.56049 0,0 -9.05855,6.58142 -9.05855,6.58142 z"
       inkscape:connector-curvature="0" />
    <path
       style="fill:#005522;stroke-width:0.26458332"
       id="path3428"
       d="m 232.08726,116.97371 c -4.22852,3.98307 -8.52685,7.29138 -13.43981,10.40694 -7.80369,4.54751 -15.54695,9.1813 -22.97545,14.3231 -6.68347,4.74916 -12.77652,10.2396 -19.03829,15.51253 -1.71484,1.42051 -3.48199,2.77074 -5.29588,4.06083 0,0 -10.2388,4.01347 -10.2388,4.01347 l 0,0 c 1.95059,-1.25429 3.80402,-2.6331 5.62224,-4.07445 6.39738,-5.25636 12.53794,-10.83318 19.25333,-15.69467 7.34653,-5.16029 15.01582,-9.81098 22.78477,-14.30663 4.696,-2.87751 9.13199,-6.06522 12.97075,-10.04391 0,0 10.35714,-4.19721 10.35714,-4.19721 z"
       inkscape:connector-curvature="0" />
    <path
       style="fill:#005522;stroke-width:0.26458332"
       id="path3430"
       d="m 230.56128,136.97324 c 2.80135,4.88303 5.65488,9.74605 8.50317,14.60616 3.83168,6.83617 7.83374,13.57463 11.76864,20.35135 3.25257,5.36116 5.9604,11.01189 8.81038,16.58905 2.27903,4.92184 5.3669,9.36414 8.63373,13.66682 0.49202,0.51561 2.29683,3.08521 3.33055,2.83906 0.26101,-0.0622 0.32756,-0.42505 0.49133,-0.63757 0,0 -8.82307,6.87767 -8.82307,6.87767 l 0,0 c -0.32305,-0.0414 -0.66592,-0.005 -0.96913,-0.1242 -1.50488,-0.58998 -2.37906,-2.28847 -3.38577,-3.40897 -3.20543,-4.41875 -6.32118,-8.9031 -8.63577,-13.87172 -2.85986,-5.55556 -5.40923,-11.26708 -8.64303,-16.62549 -3.88066,-6.8024 -7.83984,-13.55887 -11.7519,-20.34315 -2.92253,-4.83597 -5.80797,-9.69226 -8.99983,-14.35689 0,0 9.6707,-5.56212 9.6707,-5.56212 z"
       inkscape:connector-curvature="0" />
    <path
       style="fill:#005522;stroke-width:0.26458332"
       id="path3432"
       d="m 302.39083,119.99752 c -5.81657,3.98669 -11.7226,7.84695 -17.53182,11.8498 -1.5013,1.05234 -3.01135,2.09235 -4.50395,3.15702 -1.59602,1.13844 -3.14928,2.33684 -4.7616,3.45208 -7.05842,4.88234 -14.39196,9.38945 -21.73261,13.82982 -9.80736,6.0769 -20.12091,11.33985 -30.72591,15.87732 -0.6278,0.23229 -1.25559,0.46458 -1.88339,0.69687 0,0 8.63002,-6.75329 8.63002,-6.75329 l 0,0 c 0.58202,-0.21869 1.16404,-0.43738 1.74606,-0.65607 4.14723,-1.7847 8.26824,-3.66652 12.32591,-5.64652 1.4586,-0.71174 2.79904,-2.6712 4.34889,-2.18948 1.44859,0.45024 -2.60796,1.55019 -3.91193,2.32529 7.34896,-4.38332 14.69491,-8.85305 21.73011,-13.73119 1.59211,-1.10395 3.1138,-2.30628 4.68487,-3.43996 1.46574,-1.05766 2.95013,-2.08921 4.42521,-3.13382 5.55424,-3.88306 11.14184,-7.71546 16.803,-11.44066 0,0 10.35714,-4.19721 10.35714,-4.19721 z"
       inkscape:connector-curvature="0" />
    <path
       style="fill:#005522;stroke-width:0.26458332"
       id="path3434"
       d="m 302.52445,127.52063 c -3.76807,4.55621 -7.9125,8.76076 -12.23672,12.78466 -5.9768,5.62488 -12.40139,10.73394 -18.88228,15.75835 -3.62328,2.71229 -7.44147,5.14887 -11.25755,7.57734 0,0 -10.1689,3.9454 -10.1689,3.9454 l 0,0 c 3.91806,-2.41525 7.79402,-4.90839 11.54365,-7.57915 6.53532,-4.97764 13.01915,-10.04241 18.99048,-15.69721 4.18941,-3.85841 8.16186,-7.90648 11.74866,-12.33851 0,0 10.26266,-4.45088 10.26266,-4.45088 z"
       inkscape:connector-curvature="0" />
    <path
       style="fill:#005522;stroke-width:0.26458332"
       id="path3436"
       d="m 304.11391,123.60466 c -4.15529,3.57016 -8.67754,6.64314 -13.19742,9.72853 -7.41778,5.0584 -14.54968,10.50627 -21.54219,16.13226 -5.27532,4.45825 -10.80603,8.57548 -16.57745,12.3638 -3.58114,2.03355 -7.16227,4.0671 -10.7434,6.10066 -0.22521,0.009 -0.55928,0.22107 -0.67562,0.028 -0.28851,-0.4788 -0.20105,-1.09979 -0.30157,-1.64968 0,0 10.30062,-4.44698 10.30062,-4.44698 l 0,0 c -0.34183,-0.22369 -0.76014,-0.36047 -1.02548,-0.67109 -0.0772,-0.0903 0.4243,-0.21302 0.32231,-0.15209 -2.65653,1.58706 -5.32491,3.15423 -7.98736,4.73135 5.9137,-3.77644 11.62497,-7.83844 16.96795,-12.39953 6.97778,-5.62621 14.0793,-11.09231 21.45813,-16.18744 4.32332,-2.96055 8.72509,-5.83721 12.58369,-9.39706 0,0 10.41779,-4.18075 10.41779,-4.18075 z"
       inkscape:connector-curvature="0" />
    <path
       style="fill:#005522;stroke-width:0.26458332"
       id="path3438"
       d="m 304.17606,134.21056 c -2.89084,5.91523 -7.17585,10.97236 -11.4485,15.92142 -5.69267,6.16828 -11.29181,12.42162 -16.96595,18.6068 -0.70999,0.76969 -1.41997,1.53938 -2.12995,2.30906 0,0 -9.88393,4.13284 -9.88393,4.13284 l 0,0 c 0.73936,-0.77999 1.4787,-1.55997 2.21805,-2.33996 5.75511,-6.1631 11.3775,-12.44742 17.11121,-18.63036 4.10991,-4.72561 8.3276,-9.55594 10.91869,-15.32163 0,0 10.18038,-4.67817 10.18038,-4.67817 z"
       inkscape:connector-curvature="0" />
    <path
       style="fill:#005522;stroke-width:0.26458332"
       id="path3440"
       d="m 303.59741,122.66466 c 0.0299,0.39712 0.0399,0.79625 0.0898,1.19137 0.28585,2.26633 0.91209,4.48045 1.35281,6.71841 0.52374,2.65945 0.77809,4.28186 1.23923,7.00526 0.9707,5.57714 1.59885,11.20959 2.82183,16.74239 0.54933,2.48512 1.28974,5.16152 1.94731,7.62641 1.16806,4.65059 2.7641,9.16692 4.44024,13.65307 0.56652,1.41962 0.79168,3.08023 1.88518,4.20328 0,0 -9.58615,5.74146 -9.58615,5.74146 l 0,0 c -0.98996,-1.3808 -1.46309,-2.98548 -1.94365,-4.60549 -1.57171,-4.58871 -3.00675,-9.21962 -4.11512,-13.94477 -0.97983,-3.96581 -1.99006,-7.91172 -2.72608,-11.93269 -0.9035,-4.93588 -0.52948,-3.52272 -1.34474,-8.44696 -0.22453,-1.35604 -0.48713,-2.70549 -0.7307,-4.05824 -0.96367,-4.97222 -2.12125,-9.8855 -3.32238,-14.8021 0,0 9.99244,-5.0914 9.99244,-5.0914 z"
       inkscape:connector-curvature="0" />
    <path
       style="fill:#005522;stroke-width:0.26458332"
       id="path3442"
       d="m 299.04584,144.02025 c 0.0332,5.80803 0.82923,11.59969 1.59612,17.34962 1.12784,9.33593 2.46912,18.64521 4.12877,27.90166 0.67128,3.23066 1.3466,6.4652 2.17599,9.66011 0.28887,1.11274 0.62076,2.73246 1.36694,3.73228 0.14409,0.19307 0.4141,0.24632 0.62114,0.36947 -21.2054,10.3839 -9.8229,6.88416 -8.72212,3.51505 0.25273,-0.7735 0.31387,-1.59692 0.4708,-2.39538 0,0 9.73878,-4.79373 9.73878,-4.79373 l 0,0 c -0.63225,7.54372 0.33091,3.91163 -10.97497,9.55437 -1.35401,-1.5857 -1.52355,-2.83309 -1.98538,-4.88011 -0.73562,-3.26051 -1.3839,-6.54374 -1.97369,-9.83332 -1.50103,-9.2885 -2.81633,-18.60611 -4.14774,-27.92001 -0.90479,-5.70626 -1.73714,-11.43038 -2.25538,-17.18476 0,0 9.96074,-5.07525 9.96074,-5.07525 z"
       inkscape:connector-curvature="0" />
    <path
       style="fill:#005522;stroke-width:0.26458332"
       id="path3444"
       d="m 290.73035,146.28811 c 0.6607,6.78656 2.15207,13.4685 3.63985,20.11348 2.11749,9.29902 4.63124,18.5039 7.23686,27.67674 0.93562,2.45701 1.34226,5.21548 2.69573,7.51451 0.12565,0.21342 0.28734,0.64623 0.51081,0.53951 0.23211,-0.11084 0.20849,-0.8777 -0.0257,-0.7712 -3.18227,1.44768 -6.15315,3.3211 -9.22972,4.98164 0.40835,-2.57835 0.28895,-1.10164 0.13546,-4.44252 0,0 9.55948,-4.98667 9.55948,-4.98667 l 0,0 c 0.49829,3.44161 0.43606,1.8968 0.37367,4.62312 -3.23485,2.25818 -6.32344,4.74189 -9.70455,6.77455 -0.25294,0.15206 -0.53289,-0.28168 -0.7294,-0.50187 -0.47916,-0.53686 -0.94205,-2.13757 -1.08447,-2.58934 -0.46496,-1.475 -1.3787,-4.77605 -1.75393,-6.10984 -2.46237,-9.23808 -4.86553,-18.4937 -7.1257,-27.7826 -1.6224,-6.62573 -3.09515,-13.28278 -4.45916,-19.96426 0,0 9.96072,-5.07525 9.96072,-5.07525 z"
       inkscape:connector-curvature="0" />
    <path
       style="fill:#005522;stroke-width:0.26458332"
       id="path3446"
       d="m 277.94825,162.65979 c 0.64823,5.0517 2.56826,9.85197 4.2386,14.63405 2.04716,5.51842 4.65873,10.86035 8.43368,15.40297 0.36673,0.35232 1.26116,1.5503 2.08377,1.40472 0.27414,-0.0485 0.87551,-0.67704 0.6268,-0.55197 -3.03913,1.52826 -6.01363,3.18185 -9.02044,4.77277 0,0 10.16548,-4.55034 10.16548,-4.55034 l 0,0 c -3.33693,2.19004 -6.56328,4.5586 -10.01075,6.57014 -0.30461,0.17773 -0.72162,0.009 -1.05166,-0.11541 -0.91853,-0.34567 -1.56155,-1.25627 -2.17858,-1.92862 -3.60731,-4.80301 -6.24023,-10.24305 -8.39478,-15.83547 -1.71535,-4.81322 -3.62818,-9.59259 -4.81018,-14.57076 0,0 9.91806,-5.23208 9.91806,-5.23208 z"
       inkscape:connector-curvature="0" />
    <path
       style="fill:#005522;stroke-width:0.26458332"
       id="path3448"
       d="m 266.00163,158.57169 c 3.54592,6.11157 8.02158,11.64185 12.46317,17.11778 4.52498,5.48966 9.70222,10.43261 15.89365,13.97688 2.41538,1.04367 5.49437,2.32109 8.21037,1.92007 0.41426,-0.0612 0.80526,-0.23014 1.20787,-0.34521 -2.83046,1.54621 -5.58022,3.25027 -8.49137,4.63862 -0.42868,0.20444 0.728,-0.63692 0.96432,-1.04889 0.32404,-0.56486 0.58552,-1.18567 0.68654,-1.82898 0.35552,-2.26402 -0.18126,-4.12211 -0.56078,-6.3587 0,0 9.36675,-5.00367 9.36675,-5.00367 l 0,0 c 0.63759,2.86636 1.62999,5.8722 0.63532,8.79019 -0.17341,0.50874 -0.32031,1.12226 -0.76991,1.41676 -3.42474,2.24324 -7.11505,4.05214 -10.67255,6.07821 -3.4145,0.36707 -6.71201,-0.72401 -9.68571,-2.3694 -6.06695,-3.87101 -11.19629,-8.94287 -15.74133,-14.50377 -4.49112,-5.52633 -8.9525,-11.07921 -13.17906,-16.81197 0,0 9.67272,-5.66792 9.67272,-5.66792 z"
       inkscape:connector-curvature="0" />
    <path
       style="fill:#005522;stroke-width:0.26458332"
       id="path3450"
       d="m 287.71447,156.77698 c -0.12723,4.5969 1.52035,8.91367 3.20543,13.10726 1.19576,2.73523 2.58792,5.38016 4.13856,7.93016 0.64635,1.0629 1.5366,2.63561 2.57845,3.46499 0.30178,0.24024 0.70511,0.31298 1.05767,0.46948 0.21569,-0.26279 0.43137,-0.52558 0.64706,-0.78837 0,0 -8.76599,6.88332 -8.76599,6.88332 l 0,0 c -0.39566,-0.0232 -0.79134,-0.0464 -1.187,-0.0696 -0.38412,-0.28226 -0.81822,-0.50683 -1.15234,-0.84679 -0.95149,-0.96813 -1.86542,-2.61084 -2.51346,-3.72859 -1.52011,-2.62188 -2.93992,-5.30514 -4.19375,-8.06509 -1.74927,-4.28256 -3.493,-8.59988 -3.79122,-13.27348 0,0 9.97659,-5.08332 9.97659,-5.08332 z"
       inkscape:connector-curvature="0" />
    <path
       style="fill:#005522;stroke-width:0.26458332"
       id="path3452"
       d="m 298.0663,127.38442 c -5.09633,3.39367 -9.82956,7.29378 -14.57653,11.15148 -6.18599,4.99155 -11.96597,10.44803 -17.79458,15.84331 -5.74342,5.2252 -11.87209,9.43694 -19.00886,12.73592 -0.30204,0.13961 -0.43809,-0.50096 -0.65714,-0.75143 0,0 9.64365,-5.85346 9.64365,-5.85346 l 0,0 c -2.34501,-2.88152 -0.12231,-0.36278 -8.80493,4.71996 -0.57279,0.33531 1.15399,-0.65851 1.70441,-1.0294 2.5718,-1.73296 4.87503,-3.81135 7.25886,-5.78425 5.90957,-5.39606 11.71752,-10.91082 17.93044,-15.96429 4.53435,-3.73499 9.00872,-7.61031 13.88687,-10.88709 0,0 10.41781,-4.18075 10.41781,-4.18075 z"
       inkscape:connector-curvature="0" />
    <path
       style="fill:#005522;stroke-width:0.26458332"
       id="path3454"
       d="m 289.078,140.95032 c -1.51976,3.61608 -3.63952,6.90838 -5.84467,10.13543 -3.53917,5.09428 -7.80484,9.61491 -12.22698,13.94265 -2.5011,2.34772 -5.17972,4.50077 -8.05414,6.37259 -4.28403,2.6141 -0.57216,0.35953 -11.28287,6.5151 0,0 8.6703,-6.99517 8.6703,-6.99517 l 0,0 c -8.94492,5.17958 -11.54675,6.64853 -7.75192,4.50042 3.01557,-1.80931 5.82329,-3.93831 8.44305,-6.28461 4.47998,-4.22158 8.76506,-8.68898 12.31408,-13.73693 2.10693,-3.09455 4.3017,-6.25163 5.51077,-9.82454 0,0 10.22238,-4.62494 10.22238,-4.62494 z"
       inkscape:connector-curvature="0" />
  </g>
</svg>
