<?xml version="1.0" encoding="UTF-8" standalone="no"?>
<!-- Created with Inkscape (http://www.inkscape.org/) -->

<svg
   xmlns:dc="http://purl.org/dc/elements/1.1/"
   xmlns:cc="http://creativecommons.org/ns#"
   xmlns:rdf="http://www.w3.org/1999/02/22-rdf-syntax-ns#"
   xmlns:svg="http://www.w3.org/2000/svg"
   xmlns="http://www.w3.org/2000/svg"
   xmlns:sodipodi="http://sodipodi.sourceforge.net/DTD/sodipodi-0.dtd"
   xmlns:inkscape="http://www.inkscape.org/namespaces/inkscape"
   width="297mm"
   height="210mm"
   viewBox="0 0 297 210"
   id="svg2"
   version="1.1"
   inkscape:version="0.91+devel r"
   sodipodi:docname="NEW.svg">
  <defs
     id="defs4" />
  <sodipodi:namedview
     id="base"
     pagecolor="#ffffff"
     bordercolor="#666666"
     borderopacity="1.0"
     inkscape:pageopacity="0.0"
     inkscape:pageshadow="2"
     inkscape:zoom="0.35"
     inkscape:cx="400"
     inkscape:cy="560"
     inkscape:document-units="mm"
     inkscape:current-layer="layer2"
     showgrid="false"
     inkscape:window-width="1366"
     inkscape:window-height="744"
     inkscape:window-x="0"
     inkscape:window-y="24"
     inkscape:window-maximized="1" />
  <metadata
     id="metadata7">
    <rdf:RDF>
      <cc:Work
         rdf:about="">
        <dc:format>image/svg+xml</dc:format>
        <dc:type
           rdf:resource="http://purl.org/dc/dcmitype/StillImage" />
        <dc:title></dc:title>
      </cc:Work>
    </rdf:RDF>
  </metadata>
  <g
     inkscape:label="Layer 1"
     inkscape:groupmode="layer"
     id="layer1"
     transform="translate(0,-87)"
     sodipodi:insensitive="true">
    <rect
       style="fill:#00aad4;stroke-width:0.26458332"
       id="rect3336"
       width="337.15479"
       height="250.97618"
       x="-8.3154764"
       y="77.773811" />
  </g>
  <g
     inkscape:groupmode="layer"
     id="layer2"
     inkscape:label="Layer 2">
    <path
       style="fill:#005522;stroke-width:0.26458332"
       id="path3358"
       d="m -3.1875645,159.41161 c 0.3784521,-0.14738 0.7651413,-0.27515 1.1353557,-0.44215 0.9073996,-0.40932 2.64096137,-1.33756 3.4483207,-1.79087 0.6473447,-0.36347 2.5694432,-1.48872 1.9235022,-1.12277 -7.2166276,4.08855 -9.9359552,5.7836 -5.3813369,2.99112 3.4466325,-1.96373 6.6497837,-4.28958 9.6885421,-6.82993 2.6133567,-2.04504 5.2901247,-3.97221 7.5702357,-6.39471 1.925446,-2.18888 3.668405,-4.52978 5.487262,-6.80713 1.760309,-2.28371 3.326831,-4.70583 5.044599,-7.02039 1.28555,-1.93212 2.505253,-3.89646 3.935688,-5.7273 1.524976,-1.72942 2.849531,-3.61444 4.112223,-5.53941 1.215453,-1.99099 2.792174,-3.68086 4.592622,-5.14667 2.170797,-1.7774 3.915095,-4.01681 5.696783,-6.16887 1.74335,-2.10923 3.232213,-4.40292 4.708223,-6.70128 3.425852,-5.245593 5.018945,-5.620029 12.658728,-9.343497 0.303194,-0.14777 0.559609,0.376677 0.839414,0.565015 1.564685,1.925664 2.141596,4.510876 2.642352,6.898842 0.728606,2.65721 1.248058,5.36212 1.912627,8.03466 0.493694,2.48753 1.312749,4.88905 1.95838,7.33668 0.651478,3.30147 1.280726,6.60768 2.02224,9.89139 0.677031,2.85102 1.796581,5.55657 2.441887,8.41625 0.421134,1.85844 0.866365,3.67506 1.672346,5.40482 0.70757,1.76201 1.631141,3.4215 2.408277,5.15049 0.80994,2.14655 1.73272,4.24444 2.663979,6.34046 0.85058,2.3027 1.834324,4.56397 2.868623,6.79041 1.058328,2.53583 2.411132,4.92954 3.592274,7.40605 0.769541,2.47811 1.801551,4.85734 2.726354,7.27698 0.922827,2.04963 1.789716,4.13286 2.834103,6.12537 0.762455,1.26528 0.320426,0.72192 1.287018,1.6611 0,0 -9.501841,5.79032 -9.501841,5.79032 l 0,0 c -1.067514,-1.19524 -0.592426,-0.54976 -1.421712,-1.93907 -1.06817,-2.03031 -1.995977,-4.13592 -2.911395,-6.23768 -0.896814,-2.40126 -1.88308,-4.76965 -2.647943,-7.21975 -1.160285,-2.48639 -2.526604,-4.87247 -3.606895,-7.39764 -1.063971,-2.22072 -2.018281,-4.51277 -2.912782,-6.80446 -0.897218,-2.10634 -1.825127,-4.19913 -2.700686,-6.3149 -0.743152,-1.7307 -1.681345,-3.37174 -2.371805,-5.12755 -0.892717,-1.80334 -1.363363,-3.69042 -1.76766,-5.65783 -0.563337,-2.88168 -1.623189,-5.61231 -2.342348,-8.45453 -0.722604,-3.26726 -1.405557,-6.54229 -2.048396,-9.82447 -0.667343,-2.44772 -1.53714,-4.84394 -2.012487,-7.34158 -0.620332,-2.69784 -1.100252,-5.42839 -1.927238,-8.07512 -0.330521,-1.75824 -0.838611,-4.57897 -2.150092,-5.84287 -3.352382,1.76142 -2.238169,1.18283 8.729514,-5.200392 0.244171,-0.142111 -0.482007,0.302913 -0.684112,0.500314 -0.816012,0.797028 -1.386578,1.841264 -2.086872,2.73041 -1.526129,2.325348 -2.984433,4.697158 -4.750408,6.855198 -1.766628,2.16016 -3.477794,4.39498 -5.479576,6.34238 -1.829634,1.36671 -3.551831,2.84555 -4.757963,4.82213 -1.272106,1.92962 -2.492227,3.91814 -4.052842,5.63287 -1.49678,1.78728 -2.823464,3.69196 -3.987372,5.71411 -1.783976,2.28338 -3.366881,4.70717 -5.07025,7.04996 -1.793496,2.31769 -3.622791,4.61297 -5.471403,6.88541 -0.541453,0.6181 -1.517048,1.76524 -2.123609,2.32397 -1.683566,1.55083 -3.655553,2.77065 -5.425103,4.21463 -3.027134,2.62549 -6.234518,5.0454 -9.7262246,7.02668 -6.5151675,4.01124 -13.0420388,8.17184 -20.0901454,11.19094 0,0 8.8090245,-6.89614 8.8090245,-6.89614 z"
       inkscape:connector-curvature="0" />
  </g>
</svg>
